<svg width="110" height="106" viewBox="0 0 110 106" fill="none" xmlns="http://www.w3.org/2000/svg"><g filter="url(#filter0_d)"><path fill-rule="evenodd" clip-rule="evenodd" d="M52.573 36.864c.785.489.897.551 1.193.551.297 0 .408-.062 1.194-.551a30.76 30.76 0 001.582-1.054c1.677-1.196 2.704-2.201 3.14-3.073a5.207 5.207 0 00.446-3.413c-.246-1.139-.864-2.095-1.74-2.692-.869-.591-1.887-.773-2.946-.523-.748.176-1.22.55-1.675 1.007-.456-.457-.928-.83-1.676-1.007-1.059-.25-2.077-.069-2.945.523-.877.597-1.495 1.553-1.741 2.692a5.203 5.203 0 00.446 3.413c.436.872 1.463 1.877 3.14 3.073.625.446 1.206.82 1.582 1.054zm-2.337-8.633a1.65 1.65 0 01.948-.294c.15 0 .304.018.463.056.36.084.543.265 1.07.824.109.117.226.241.355.374a.967.967 0 001.389 0c.129-.133.246-.257.355-.374.526-.559.71-.74 1.07-.824.523-.124.998-.043 1.411.238.465.317.798.85.94 1.502a3.262 3.262 0 01-.286 2.138c-.536 1.072-3.054 2.77-4.185 3.46-1.13-.69-3.648-2.388-4.184-3.46a3.262 3.262 0 01-.286-2.138c.141-.652.475-1.185.94-1.502zM75.38 63.797c2.237 0 4.105 1.788 4.166 3.987a4.071 4.071 0 01-1.16 2.975A4.07 4.07 0 0175.446 72l-25.173-.006c-5.27 0-8.71-3.116-9.683-8.772-.342-1.992-.616-2.886-.762-3.263h-1.409v2.337a.968.968 0 01-.968.968h-6.483a.968.968 0 01-.968-.968V46.861c0-.535.433-.968.968-.968h6.483c.535 0 .968.433.968.968v.916c2.796-.227 7.435-.327 10.604 1.05v-1.855c0-.309.146-.598.394-.78l1.55-1.14V39.44c0-.534.434-.967.968-.967h3.663c.534 0 .967.433.967.967v1.5l5.82-4.274a.967.967 0 011.146 0l12.967 9.526a.967.967 0 01.395.78v4.83a.968.968 0 01-1.54.78l-.254-.186v11.4h.281zm-7.799 0h5.583V50.974l-10.207-7.498-10.617 7.776 5.994 5.226V54.08c0-.534.434-.967.968-.967h7.311c.535 0 .968.433.968.967v9.716zm-3.47-2.283a4.078 4.078 0 011.42 2.283h.115v-8.748H60.27v3.116l3.841 3.35zM54.63 40.408h-1.727v3.223l1.727-1.269v-1.954zm8.328-1.761l-12 8.815v2.404l11.428-8.37a.967.967 0 011.145 0l11.426 8.394v-2.428l-12-8.815zM31.935 61.328h4.549v-13.5h-4.549v13.5zm43.51 8.737a2.15 2.15 0 001.553-.656c.412-.423.629-.98.613-1.572-.032-1.161-1.033-2.105-2.231-2.105h-9.878a4.078 4.078 0 01-.768 1.534 4.074 4.074 0 01-3.21 1.54 4.07 4.07 0 01-2.556-.9l-11.062-8.973a.968.968 0 011.22-1.503l11.057 8.968a2.15 2.15 0 001.587.458 2.169 2.169 0 001.084-3.87L49.638 51.464l-.016-.014v-.001c-2.387-2.181-8.402-1.965-11.203-1.73v8.305h1.87c.982 0 1.332 1.14 1.52 1.751.229.742.46 1.792.689 3.119.562 3.268 2.367 7.164 7.775 7.164l25.173.007z" fill="#0EF5FF"/></g><defs><filter id="filter0_d" x="0" y="0" width="109.547" height="106" filterUnits="userSpaceOnUse" color-interpolation-filters="sRGB"><feFlood flood-opacity="0" result="BackgroundImageFix"/><feColorMatrix in="SourceAlpha" values="0 0 0 0 0 0 0 0 0 0 0 0 0 0 0 0 0 0 127 0"/><feOffset dy="4"/><feGaussianBlur stdDeviation="15"/><feColorMatrix values="0 0 0 0 0.054902 0 0 0 0 0.960784 0 0 0 0 1 0 0 0 0.8 0"/><feBlend in2="BackgroundImageFix" result="effect1_dropShadow"/><feBlend in="SourceGraphic" in2="effect1_dropShadow" result="shape"/></filter></defs></svg>