<svg width="1440" height="866" viewBox="0 0 1440 866" fill="none" xmlns="http://www.w3.org/2000/svg">
<g clip-path="url(#clip0)">
<rect width="1440" height="866" fill="white"/>
<rect width="1440" height="867" fill="url(#paint0_linear)"/>
<g opacity="0.3" clip-path="url(#clip1)">
<path d="M1339.04 331.384L374.192 888.424" stroke="#0EF5FF" stroke-width="0.866" stroke-miterlimit="10"/>
<path d="M1377.73 353.658L412.882 910.794" stroke="#0EF5FF" stroke-width="0.866" stroke-miterlimit="10"/>
<path d="M1416.32 376.028L451.572 933.068" stroke="#0EF5FF" stroke-width="0.866" stroke-miterlimit="10"/>
<path d="M1455.01 398.302L490.262 955.438" stroke="#0EF5FF" stroke-width="0.866" stroke-miterlimit="10"/>
<path d="M1493.7 420.672L528.856 977.712" stroke="#0EF5FF" stroke-width="0.866" stroke-miterlimit="10"/>
<path d="M1532.39 443.042L567.546 1000.08" stroke="#0EF5FF" stroke-width="0.866" stroke-miterlimit="10"/>
<path d="M1571.08 465.316L606.236 1022.36" stroke="#0EF5FF" stroke-width="0.866" stroke-miterlimit="10"/>
<path d="M1609.77 487.685L644.925 1044.73" stroke="#0EF5FF" stroke-width="0.866" stroke-miterlimit="10"/>
<path d="M1648.37 509.959L683.615 1067" stroke="#0EF5FF" stroke-width="0.866" stroke-miterlimit="10"/>
<path d="M1687.06 532.329L722.209 1089.37" stroke="#0EF5FF" stroke-width="0.866" stroke-miterlimit="10"/>
<path d="M1725.75 554.603L760.899 1111.74" stroke="#0EF5FF" stroke-width="0.866" stroke-miterlimit="10"/>
<path d="M1764.44 576.973L799.589 1134.01" stroke="#0EF5FF" stroke-width="0.866" stroke-miterlimit="10"/>
<path d="M1803.13 599.343L838.279 1156.38" stroke="#0EF5FF" stroke-width="0.866" stroke-miterlimit="10"/>
<path d="M1841.72 621.617L876.969 1178.66" stroke="#0EF5FF" stroke-width="0.866" stroke-miterlimit="10"/>
<path d="M1880.41 643.987L915.659 1201.03" stroke="#0EF5FF" stroke-width="0.866" stroke-miterlimit="10"/>
<path d="M1919.1 666.261L954.253 1223.3" stroke="#0EF5FF" stroke-width="0.866" stroke-miterlimit="10"/>
<path d="M1957.79 688.631L992.943 1245.67" stroke="#0EF5FF" stroke-width="0.866" stroke-miterlimit="10"/>
<path d="M1996.48 710.905L1031.63 1268.04" stroke="#0EF5FF" stroke-width="0.866" stroke-miterlimit="10"/>
<path d="M2035.07 733.275L1070.32 1290.31" stroke="#0EF5FF" stroke-width="0.866" stroke-miterlimit="10"/>
<path d="M2073.76 755.549L1109.01 1312.68" stroke="#0EF5FF" stroke-width="0.866" stroke-miterlimit="10"/>
<path d="M2112.45 777.918L1147.61 1334.96" stroke="#0EF5FF" stroke-width="0.866" stroke-miterlimit="10"/>
<path d="M2151.14 800.288L1186.3 1357.33" stroke="#0EF5FF" stroke-width="0.866" stroke-miterlimit="10"/>
<path d="M2189.83 822.562L1224.99 1379.6" stroke="#0EF5FF" stroke-width="0.866" stroke-miterlimit="10"/>
<path d="M2228.52 844.932L1263.68 1401.97" stroke="#0EF5FF" stroke-width="0.866" stroke-miterlimit="10"/>
<path d="M2305.81 888.424L1340.96 331.384" stroke="#0EF5FF" stroke-width="0.866" stroke-miterlimit="10"/>
<path d="M2267.12 910.794L1302.27 353.658" stroke="#0EF5FF" stroke-width="0.866" stroke-miterlimit="10"/>
<path d="M2228.52 933.068L1263.68 376.028" stroke="#0EF5FF" stroke-width="0.866" stroke-miterlimit="10"/>
<path d="M2189.83 955.438L1224.99 398.302" stroke="#0EF5FF" stroke-width="0.866" stroke-miterlimit="10"/>
<path d="M2151.14 977.712L1186.3 420.672" stroke="#0EF5FF" stroke-width="0.866" stroke-miterlimit="10"/>
<path d="M2112.45 1000.08L1147.61 443.042" stroke="#0EF5FF" stroke-width="0.866" stroke-miterlimit="10"/>
<path d="M2073.76 1022.36L1108.92 465.316" stroke="#0EF5FF" stroke-width="0.866" stroke-miterlimit="10"/>
<path d="M2035.17 1044.73L1070.32 487.685" stroke="#0EF5FF" stroke-width="0.866" stroke-miterlimit="10"/>
<path d="M1996.48 1067.1L1031.63 509.959" stroke="#0EF5FF" stroke-width="0.866" stroke-miterlimit="10"/>
<path d="M1957.79 1089.37L992.943 532.329" stroke="#0EF5FF" stroke-width="0.866" stroke-miterlimit="10"/>
<path d="M1919.1 1111.74L954.253 554.603" stroke="#0EF5FF" stroke-width="0.866" stroke-miterlimit="10"/>
<path d="M1880.41 1134.01L915.563 576.973" stroke="#0EF5FF" stroke-width="0.866" stroke-miterlimit="10"/>
<path d="M1841.82 1156.38L876.969 599.247" stroke="#0EF5FF" stroke-width="0.866" stroke-miterlimit="10"/>
<path d="M1803.13 1178.66L838.279 621.617" stroke="#0EF5FF" stroke-width="0.866" stroke-miterlimit="10"/>
<path d="M1764.44 1201.03L799.589 643.987" stroke="#0EF5FF" stroke-width="0.866" stroke-miterlimit="10"/>
<path d="M1725.75 1223.3L760.899 666.261" stroke="#0EF5FF" stroke-width="0.866" stroke-miterlimit="10"/>
<path d="M1687.06 1245.67L722.209 688.631" stroke="#0EF5FF" stroke-width="0.866" stroke-miterlimit="10"/>
<path d="M1648.46 1268.04L683.615 710.905" stroke="#0EF5FF" stroke-width="0.866" stroke-miterlimit="10"/>
<path d="M1609.77 1290.31L644.925 733.275" stroke="#0EF5FF" stroke-width="0.866" stroke-miterlimit="10"/>
<path d="M1571.08 1312.68L606.236 755.549" stroke="#0EF5FF" stroke-width="0.866" stroke-miterlimit="10"/>
<path d="M1532.39 1334.96L567.546 777.918" stroke="#0EF5FF" stroke-width="0.866" stroke-miterlimit="10"/>
<path d="M1493.7 1357.33L528.856 800.192" stroke="#0EF5FF" stroke-width="0.866" stroke-miterlimit="10"/>
<path d="M1455.11 1379.6L490.262 822.562" stroke="#0EF5FF" stroke-width="0.866" stroke-miterlimit="10"/>
<path d="M1416.42 1401.97L451.572 844.932" stroke="#0EF5FF" stroke-width="0.866" stroke-miterlimit="10"/>
</g>
</g>
<defs>
<linearGradient id="paint0_linear" x1="887" y1="88.9013" x2="1315.69" y2="930.332" gradientUnits="userSpaceOnUse">
<stop stop-color="#342B48"/>
<stop offset="0.538086" stop-color="#0F4F57"/>
<stop offset="1" stop-color="#0EF5FF"/>
</linearGradient>
<clipPath id="clip0">
<rect width="1440" height="866" fill="white"/>
</clipPath>
<clipPath id="clip1">
<rect width="1932" height="535" fill="white" transform="translate(374 331)"/>
</clipPath>
</defs>
</svg>
