<svg width="1440" height="866" viewBox="0 0 1440 866" fill="none" xmlns="http://www.w3.org/2000/svg"><g clip-path="url(#clip0)"><path fill="#fff" d="M0 0h1440v866H0z"/><path fill="url(#paint0_linear)" d="M0 0h1440v867H0z"/><g opacity=".3" clip-path="url(#clip1)" stroke="#0EF5FF" stroke-width=".866" stroke-miterlimit="10"><path d="M1339.04 331.384l-964.848 557.04M1377.73 353.658L412.882 910.794M1416.32 376.028l-964.748 557.04M1455.01 398.302L490.262 955.438M1493.7 420.672l-964.844 557.04m1003.534-534.67L567.546 1000.08M1571.08 465.316L606.236 1022.36M1609.77 487.685L644.925 1044.73M1648.37 509.959L683.615 1067M1687.06 532.329L722.209 1089.37M1725.75 554.603L760.899 1111.74M1764.44 576.973L799.589 1134.01M1803.13 599.343L838.279 1156.38M1841.72 621.617L876.969 1178.66M1880.41 643.987L915.659 1201.03M1919.1 666.261L954.253 1223.3M1957.79 688.631L992.943 1245.67M1996.48 710.905l-964.85 557.135m1003.44-534.765l-964.75 557.035m1003.44-534.761l-964.75 557.131m1003.44-534.762l-964.84 557.042m1003.53-534.672L1186.3 1357.33m1003.53-534.768L1224.99 1379.6m1003.53-534.668l-964.84 557.038m1042.13-513.546l-964.85-557.04m926.16 579.41l-964.85-557.136m926.25 579.41l-964.84-557.04m926.15 579.41l-964.84-557.136m926.15 579.41l-964.84-557.04m926.15 579.408l-964.84-557.038m926.15 579.318l-964.84-557.044m926.25 579.414l-964.85-557.045m926.16 579.415l-964.85-557.141m926.16 579.411L992.943 532.329M1919.1 1111.74L954.253 554.603m926.157 579.407L915.563 576.973m926.257 579.407L876.969 599.247m926.161 579.413L838.279 621.617m926.161 579.413L799.589 643.987M1725.75 1223.3L760.899 666.261m926.161 579.409L722.209 688.631m926.251 579.409L683.615 710.905m926.155 579.405L644.925 733.275m926.155 579.405L606.236 755.549m926.154 579.411L567.546 777.918M1493.7 1357.33L528.856 800.192M1455.11 1379.6L490.262 822.562m926.158 579.408L451.572 844.932"/></g></g><defs><clipPath id="clip0"><path fill="#fff" d="M0 0h1440v866H0z"/></clipPath><clipPath id="clip1"><path fill="#fff" transform="translate(374 331)" d="M0 0h1932v535H0z"/></clipPath><linearGradient id="paint0_linear" x1="887" y1="88.901" x2="1315.69" y2="930.332" gradientUnits="userSpaceOnUse"><stop stop-color="#342B48"/><stop offset=".538" stop-color="#0F4F57"/><stop offset="1" stop-color="#0EF5FF"/></linearGradient></defs></svg>