<svg width="112" height="109" viewBox="0 0 112 109" fill="none" xmlns="http://www.w3.org/2000/svg">
<g filter="url(#filter0_d)">
<mask id="path-1-inside-1" fill="white">
<path d="M53.3312 53.5476H74.2611C74.7757 53.5476 75.1189 53.2013 75.1189 52.6819C75.1189 52.1625 74.7757 51.8162 74.2611 51.8162H53.3312C52.9301 51.8162 52.6332 52.0265 52.5217 52.3651C52.455 52.5676 52.501 52.7877 52.5843 52.9839C52.7319 53.3312 52.9243 53.5476 53.3312 53.5476Z"/>
</mask>
<path d="M52.5843 52.9839L50.7435 53.7658L52.5843 52.9839ZM53.3312 55.5476H74.2611V51.5476H53.3312V55.5476ZM74.2611 55.5476C74.9785 55.5476 75.7292 55.297 76.3037 54.7172C76.8766 54.139 77.1189 53.3906 77.1189 52.6819H73.1189C73.1189 52.4926 73.1896 52.177 73.4622 51.9019C73.7365 51.6251 74.0583 51.5476 74.2611 51.5476V55.5476ZM77.1189 52.6819C77.1189 51.9732 76.8766 51.2247 76.3037 50.6466C75.7292 50.0667 74.9785 49.8162 74.2611 49.8162V53.8162C74.0583 53.8162 73.7365 53.7387 73.4622 53.4619C73.1896 53.1867 73.1189 52.8712 73.1189 52.6819H77.1189ZM74.2611 49.8162H53.3312V53.8162H74.2611V49.8162ZM53.3312 49.8162C52.1499 49.8162 51.0288 50.5042 50.622 51.7396L54.4214 52.9906C54.3465 53.2181 54.1888 53.4485 53.9495 53.6127C53.7152 53.7735 53.4839 53.8162 53.3312 53.8162V49.8162ZM50.7435 53.7658C50.8681 54.0591 51.1072 54.5396 51.5826 54.9345C52.1146 55.3764 52.7386 55.5476 53.3312 55.5476V51.5476C53.4072 51.5476 53.5358 51.5579 53.693 51.61C53.8559 51.664 54.0083 51.7495 54.1384 51.8575C54.379 52.0574 54.4481 52.256 54.4251 52.202L50.7435 53.7658ZM50.622 51.7396C50.3352 52.6107 50.5785 53.3774 50.7435 53.7658L54.4251 52.202C54.4339 52.2226 54.4644 52.2981 54.4802 52.42C54.4967 52.5472 54.5 52.7517 54.4214 52.9906L50.622 51.7396Z" fill="#0EF5FF" mask="url(#path-1-inside-1)"/>
<mask id="path-3-inside-2" fill="white">
<path d="M74.2611 58.5688H64.6539C64.1393 58.5688 63.7961 58.9151 63.7961 59.4346C63.7961 59.954 64.1393 60.3003 64.6539 60.3003H74.2611C74.7758 60.3003 75.1189 59.954 75.1189 59.4346C75.1189 58.742 74.7758 58.5688 74.2611 58.5688Z"/>
</mask>
<path d="M74.2611 56.5688H64.6539V60.5688H74.2611V56.5688ZM64.6539 56.5688C63.9365 56.5688 63.1858 56.8194 62.6113 57.3992C62.0384 57.9774 61.7961 58.7259 61.7961 59.4346H65.7961C65.7961 59.6238 65.7254 59.9394 65.4528 60.2146C65.1785 60.4914 64.8567 60.5688 64.6539 60.5688V56.5688ZM61.7961 59.4346C61.7961 60.1433 62.0384 60.8917 62.6113 61.4699C63.1858 62.0497 63.9365 62.3003 64.6539 62.3003V58.3003C64.8567 58.3003 65.1785 58.3777 65.4528 58.6546C65.7254 58.9297 65.7961 59.2453 65.7961 59.4346H61.7961ZM64.6539 62.3003H74.2611V58.3003H64.6539V62.3003ZM74.2611 62.3003C74.9785 62.3003 75.7292 62.0497 76.3037 61.4699C76.8766 60.8917 77.1189 60.1433 77.1189 59.4346H73.1189C73.1189 59.2453 73.1896 58.9297 73.4623 58.6546C73.7365 58.3777 74.0584 58.3003 74.2611 58.3003V62.3003ZM77.1189 59.4346C77.1189 58.7925 76.9581 57.8926 76.1915 57.2294C75.4867 56.6197 74.6646 56.5688 74.2611 56.5688V60.5688C74.3723 60.5688 73.979 60.6045 73.5745 60.2546C73.1081 59.8511 73.1189 59.384 73.1189 59.4346H77.1189Z" fill="#0EF5FF" mask="url(#path-3-inside-2)"/>
<mask id="path-5-inside-3" fill="white">
<path d="M53.3312 60.1273H60.5367C61.0513 60.1273 61.3944 59.781 61.3944 59.2615C61.3944 58.7421 61.0513 58.3958 60.5367 58.3958H53.3312C52.9301 58.3958 52.6332 58.6061 52.5217 58.9448C52.455 59.1472 52.501 59.3674 52.5843 59.5635C52.7319 59.9108 52.9243 60.1273 53.3312 60.1273Z"/>
</mask>
<path d="M53.3312 62.1273H60.5367V58.1273H53.3312V62.1273ZM60.5367 62.1273C61.2541 62.1273 62.0048 61.8767 62.5793 61.2968C63.1522 60.7187 63.3944 59.9702 63.3944 59.2615H59.3944C59.3944 59.0723 59.4652 58.7567 59.7378 58.4815C60.0121 58.2047 60.3339 58.1273 60.5367 58.1273V62.1273ZM63.3944 59.2615C63.3944 58.5528 63.1522 57.8043 62.5793 57.2262C62.0048 56.6463 61.2541 56.3958 60.5367 56.3958V60.3958C60.3339 60.3958 60.0121 60.3183 59.7378 60.0415C59.4652 59.7663 59.3944 59.4508 59.3944 59.2615H63.3944ZM60.5367 56.3958H53.3312V60.3958H60.5367V56.3958ZM53.3312 56.3958C52.1499 56.3958 51.0288 57.0839 50.622 58.3193L54.4214 59.5702C54.3465 59.7977 54.1888 60.0281 53.9495 60.1923C53.7152 60.3531 53.4839 60.3958 53.3312 60.3958V56.3958ZM50.7435 60.3454C50.8681 60.6387 51.1072 61.1192 51.5826 61.5141C52.1146 61.956 52.7386 62.1273 53.3312 62.1273V58.1273C53.4072 58.1273 53.5358 58.1375 53.693 58.1896C53.8559 58.2437 54.0083 58.3291 54.1384 58.4371C54.379 58.637 54.4481 58.8357 54.4252 58.7816L50.7435 60.3454ZM50.622 58.3193C50.3352 59.1904 50.5785 59.957 50.7435 60.3454L54.4252 58.7816C54.4339 58.8022 54.4644 58.8777 54.4802 58.9996C54.4967 59.1268 54.5 59.3312 54.4214 59.5702L50.622 58.3193Z" fill="#0EF5FF" mask="url(#path-5-inside-3)"/>
<mask id="path-7-inside-4" fill="white">
<path d="M53.3312 66.5335H74.2611C74.7757 66.5335 75.1189 66.1872 75.1189 65.6678C75.1189 65.1483 74.7757 64.802 74.2611 64.802H53.3312C52.9014 64.802 52.5912 65.0435 52.5006 65.4257C52.4632 65.5834 52.49 65.7482 52.5381 65.903C52.693 66.4008 52.8806 66.5335 53.3312 66.5335Z"/>
</mask>
<path d="M52.5381 65.903L50.6284 66.4971L52.5381 65.903ZM53.3312 68.5335H74.2611V64.5335H53.3312V68.5335ZM74.2611 68.5335C74.9785 68.5335 75.7292 68.2829 76.3037 67.7031C76.8766 67.1249 77.1189 66.3765 77.1189 65.6678H73.1189C73.1189 65.4785 73.1896 65.1629 73.4622 64.8878C73.7365 64.611 74.0583 64.5335 74.2611 64.5335V68.5335ZM77.1189 65.6678C77.1189 64.9591 76.8766 64.2106 76.3037 63.6324C75.7292 63.0526 74.9785 62.802 74.2611 62.802V66.802C74.0583 66.802 73.7365 66.7246 73.4622 66.4477C73.1896 66.1726 73.1189 65.857 73.1189 65.6678H77.1189ZM74.2611 62.802H53.3312V66.802H74.2611V62.802ZM53.3312 62.802C52.0437 62.802 50.8744 63.6147 50.5545 64.9645L54.4467 65.887C54.3925 66.1158 54.2496 66.3727 53.9973 66.564C53.7495 66.752 53.496 66.802 53.3312 66.802V62.802ZM50.6284 66.4971C50.7388 66.8518 50.9763 67.5014 51.5954 67.9832C52.2473 68.4906 52.9573 68.5335 53.3312 68.5335V64.5335C53.2544 64.5335 53.6454 64.51 54.0521 64.8266C54.426 65.1176 54.4924 65.452 54.4479 65.3089L50.6284 66.4971ZM50.5545 64.9645C50.3978 65.6257 50.5339 66.1934 50.6284 66.4971L54.4479 65.3089C54.4509 65.3187 54.4682 65.3753 54.4773 65.4661C54.4867 65.5598 54.4891 65.7079 54.4467 65.887L50.5545 64.9645Z" fill="#0EF5FF" mask="url(#path-7-inside-4)"/>
<mask id="path-9-inside-5" fill="white">
<path d="M58.1354 36.5793H36.3478C35.8331 36.5793 35.49 36.9256 35.49 37.4451C35.49 37.9645 35.8331 38.3108 36.3478 38.3108H58.1354C58.6501 38.3108 58.9932 37.9645 58.9932 37.4451C58.9932 36.9256 58.6501 36.5793 58.1354 36.5793Z"/>
</mask>
<path d="M58.1354 34.5793H36.3478V38.5793H58.1354V34.5793ZM36.3478 34.5793C35.6304 34.5793 34.8797 34.8299 34.3052 35.4097C33.7323 35.9879 33.49 36.7364 33.49 37.4451H37.49C37.49 37.6343 37.4192 37.9499 37.1466 38.2251C36.8723 38.5019 36.5505 38.5793 36.3478 38.5793V34.5793ZM33.49 37.4451C33.49 38.1538 33.7323 38.9022 34.3052 39.4804C34.8797 40.0602 35.6304 40.3108 36.3478 40.3108V36.3108C36.5505 36.3108 36.8723 36.3882 37.1466 36.6651C37.4192 36.9402 37.49 37.2558 37.49 37.4451H33.49ZM36.3478 40.3108H58.1354V36.3108H36.3478V40.3108ZM58.1354 40.3108C58.8528 40.3108 59.6036 40.0602 60.178 39.4804C60.7509 38.9022 60.9932 38.1538 60.9932 37.4451H56.9932C56.9932 37.2558 57.064 36.9402 57.3366 36.6651C57.6109 36.3882 57.9327 36.3108 58.1354 36.3108V40.3108ZM60.9932 37.4451C60.9932 36.7364 60.7509 35.9879 60.178 35.4097C59.6036 34.8299 58.8528 34.5793 58.1354 34.5793V38.5793C57.9327 38.5793 57.6109 38.5019 57.3366 38.2251C57.064 37.9499 56.9932 37.6343 56.9932 37.4451H60.9932Z" fill="#0EF5FF" mask="url(#path-9-inside-5)"/>
<mask id="path-11-inside-6" fill="white">
<path d="M47.6705 43.8518C47.6705 43.3324 47.3274 42.9861 46.8127 42.9861H36.3478C35.8331 42.9861 35.49 43.3324 35.49 43.8518C35.49 44.3712 35.8331 44.7175 36.3478 44.7175H46.8127C47.4989 44.7175 47.6705 44.3712 47.6705 43.8518Z"/>
</mask>
<path d="M49.6705 43.8518C49.6705 43.1431 49.4282 42.3946 48.8553 41.8165C48.2808 41.2367 47.5301 40.9861 46.8127 40.9861V44.9861C46.61 44.9861 46.2882 44.9087 46.0139 44.6318C45.7412 44.3567 45.6705 44.0411 45.6705 43.8518H49.6705ZM46.8127 40.9861H36.3478V44.9861H46.8127V40.9861ZM36.3478 40.9861C35.6304 40.9861 34.8797 41.2367 34.3052 41.8165C33.7323 42.3946 33.49 43.1431 33.49 43.8518H37.49C37.49 44.0411 37.4192 44.3567 37.1466 44.6318C36.8723 44.9087 36.5505 44.9861 36.3478 44.9861V40.9861ZM33.49 43.8518C33.49 44.5605 33.7323 45.309 34.3052 45.8871C34.8797 46.4669 35.6304 46.7175 36.3478 46.7175V42.7175C36.5505 42.7175 36.8723 42.7949 37.1466 43.0717C37.4192 43.3469 37.49 43.6625 37.49 43.8518H33.49ZM36.3478 46.7175H46.8127V42.7175H36.3478V46.7175ZM46.8127 46.7175C47.4621 46.7175 48.3643 46.5501 49.0233 45.7741C49.6219 45.0693 49.6705 44.2518 49.6705 43.8518H45.6705C45.6705 43.9712 45.6333 43.5865 45.9745 43.1848C46.3762 42.7118 46.8495 42.7175 46.8127 42.7175V46.7175Z" fill="#0EF5FF" mask="url(#path-11-inside-6)"/>
<mask id="path-13-inside-7" fill="white">
<path d="M58.1356 42.9861H51.6163C51.1017 42.9861 50.7585 43.3324 50.7585 43.8518C50.7585 44.3712 51.1017 44.7175 51.6163 44.7175H58.1356C58.6503 44.7175 58.9934 44.3712 58.9934 43.8518C58.9934 43.3324 58.6503 42.9861 58.1356 42.9861Z"/>
</mask>
<path d="M58.1356 40.9861H51.6163V44.9861H58.1356V40.9861ZM51.6163 40.9861C50.899 40.9861 50.1482 41.2366 49.5737 41.8165C49.0009 42.3946 48.7585 43.1431 48.7585 43.8518H52.7585C52.7585 44.0411 52.6878 44.3567 52.4151 44.6319C52.1409 44.9087 51.819 44.9861 51.6163 44.9861V40.9861ZM48.7585 43.8518C48.7585 44.5605 49.0009 45.309 49.5737 45.8871C50.1482 46.4669 50.899 46.7175 51.6163 46.7175V42.7175C51.819 42.7175 52.1409 42.7949 52.4151 43.0717C52.6878 43.3469 52.7585 43.6625 52.7585 43.8518H48.7585ZM51.6163 46.7175H58.1356V42.7175H51.6163V46.7175ZM58.1356 46.7175C58.853 46.7175 59.6037 46.4669 60.1782 45.8871C60.7511 45.309 60.9934 44.5605 60.9934 43.8518H56.9934C56.9934 43.6625 57.0642 43.3469 57.3368 43.0717C57.6111 42.7949 57.9329 42.7175 58.1356 42.7175V46.7175ZM60.9934 43.8518C60.9934 43.1431 60.7511 42.3946 60.1782 41.8165C59.6037 41.2366 58.853 40.9861 58.1356 40.9861V44.9861C57.9329 44.9861 57.6111 44.9087 57.3368 44.6319C57.0642 44.3567 56.9934 44.0411 56.9934 43.8518H60.9934Z" fill="#0EF5FF" mask="url(#path-13-inside-7)"/>
<mask id="path-15-inside-8" fill="white">
<path d="M36.517 49.5654C36.0023 49.5654 35.6592 49.9117 35.6592 50.4312C35.6592 50.9506 36.0023 51.2969 36.517 51.2969H43.7223C44.237 51.2969 44.5801 50.9506 44.5801 50.4312C44.5801 49.9117 44.237 49.5654 43.7223 49.5654H36.517Z"/>
</mask>
<path d="M36.517 47.5654C35.7995 47.5654 35.0488 47.816 34.4743 48.3958C33.9015 48.974 33.6592 49.7225 33.6592 50.4312H37.6592C37.6592 50.6204 37.5884 50.936 37.3158 51.2112C37.0415 51.488 36.7197 51.5654 36.517 51.5654V47.5654ZM33.6592 50.4312C33.6592 51.1399 33.9015 51.8883 34.4743 52.4665C35.0488 53.0463 35.7995 53.2969 36.517 53.2969V49.2969C36.7197 49.2969 37.0415 49.3743 37.3158 49.6511C37.5884 49.9263 37.6592 50.2419 37.6592 50.4312H33.6592ZM36.517 53.2969H43.7223V49.2969H36.517V53.2969ZM43.7223 53.2969C44.4397 53.2969 45.1904 53.0463 45.7649 52.4665C46.3378 51.8883 46.5801 51.1399 46.5801 50.4312H42.5801C42.5801 50.2419 42.6508 49.9263 42.9234 49.6511C43.1977 49.3743 43.5195 49.2969 43.7223 49.2969V53.2969ZM46.5801 50.4312C46.5801 49.7225 46.3378 48.974 45.7649 48.3958C45.1904 47.816 44.4397 47.5654 43.7223 47.5654V51.5654C43.5195 51.5654 43.1977 51.488 42.9234 51.2112C42.6508 50.936 42.5801 50.6204 42.5801 50.4312H46.5801ZM43.7223 47.5654H36.517V51.5654H43.7223V47.5654Z" fill="#0EF5FF" mask="url(#path-15-inside-8)"/>
<mask id="path-17-inside-9" fill="white">
<path d="M46.1252 50.431V67.9186C46.1252 70.3427 48.1838 73.113 50.7572 73.113H66.3689L72.888 78.8268C73.0596 78.9999 73.2311 78.9999 73.4027 78.9999C73.4027 78.9999 73.5743 78.9999 73.7458 78.9999C74.0889 78.8268 74.2605 78.6536 74.2605 78.3073V73.113H76.6623C79.0641 73.113 81.6374 70.5158 81.6374 67.9186V50.431C81.6374 47.8339 79.0641 46.4487 76.6623 46.4487H50.7572C48.0123 46.2755 46.1252 48.007 46.1252 50.431ZM79.9218 50.431V67.9186C79.9218 69.6501 78.2063 71.5547 76.6623 71.5547H73.5743C73.0596 71.5547 72.7165 71.901 72.7165 72.4204V76.5759L67.2267 71.7278C67.0551 71.5547 66.8836 71.5547 66.712 71.5547H50.9288C49.3848 71.5547 47.8408 69.8232 47.8408 67.9186V50.431C47.8408 48.6996 49.3848 48.007 50.9288 48.007H76.8338C78.2063 47.8338 79.9218 48.8727 79.9218 50.431Z"/>
</mask>
<path d="M66.3689 73.113L67.6872 71.6089L67.1213 71.113H66.3689V73.113ZM72.888 78.8268L74.3087 77.4191L74.2592 77.3691L74.2063 77.3227L72.888 78.8268ZM73.7458 78.9999V80.9999H74.2219L74.6468 80.7855L73.7458 78.9999ZM74.2605 73.113V71.113H72.2605V73.113H74.2605ZM50.7572 46.4487L50.6313 48.4447L50.6942 48.4487H50.7572V46.4487ZM72.7165 76.5759L71.3926 78.075L74.7165 81.0103V76.5759H72.7165ZM67.2267 71.7278L65.806 73.1355L65.8529 73.1828L65.9028 73.227L67.2267 71.7278ZM76.8338 48.007V50.007H76.9595L77.0841 49.9913L76.8338 48.007ZM44.1252 50.431V67.9186H48.1252V50.431H44.1252ZM44.1252 67.9186C44.1252 69.6592 44.8453 71.4024 45.9448 72.7112C47.0484 74.025 48.7244 75.113 50.7572 75.113V71.113C50.2167 71.113 49.5767 70.8159 49.0076 70.1384C48.4345 69.4562 48.1252 68.6021 48.1252 67.9186H44.1252ZM50.7572 75.113H66.3689V71.113H50.7572V75.113ZM65.0506 74.6171L71.5698 80.3308L74.2063 77.3227L67.6872 71.6089L65.0506 74.6171ZM71.4673 80.2345C72.2607 81.0352 73.1985 80.9999 73.4027 80.9999V76.9999C73.2796 76.9999 73.4412 76.9903 73.6347 77.0391C73.7495 77.0681 73.8766 77.1152 74.0042 77.1877C74.131 77.2597 74.2321 77.3418 74.3087 77.4191L71.4673 80.2345ZM73.4027 78.9999C73.4027 80.9999 73.4027 80.9999 73.4027 80.9999C73.4027 80.9999 73.4027 80.9999 73.4027 80.9999C73.4027 80.9999 73.4027 80.9999 73.4027 80.9999C73.4027 80.9999 73.4027 80.9999 73.4027 80.9999C73.4027 80.9999 73.4027 80.9999 73.4027 80.9999C73.4027 80.9999 73.4027 80.9999 73.4027 80.9999C73.4028 80.9999 73.4028 80.9999 73.4028 80.9999C73.4028 80.9999 73.4028 80.9999 73.4028 80.9999C73.4028 80.9999 73.4028 80.9999 73.4028 80.9999C73.4028 80.9999 73.4029 80.9999 73.4029 80.9999C73.4029 80.9999 73.4029 80.9999 73.4029 80.9999C73.4029 80.9999 73.4029 80.9999 73.403 80.9999C73.403 80.9999 73.403 80.9999 73.403 80.9999C73.403 80.9999 73.403 80.9999 73.4031 80.9999C73.4031 80.9999 73.4031 80.9999 73.4031 80.9999C73.4031 80.9999 73.4032 80.9999 73.4032 80.9999C73.4032 80.9999 73.4032 80.9999 73.4032 80.9999C73.4033 80.9999 73.4033 80.9999 73.4033 80.9999C73.4033 80.9999 73.4034 80.9999 73.4034 80.9999C73.4034 80.9999 73.4034 80.9999 73.4035 80.9999C73.4035 80.9999 73.4035 80.9999 73.4035 80.9999C73.4036 80.9999 73.4036 80.9999 73.4036 80.9999C73.4036 80.9999 73.4037 80.9999 73.4037 80.9999C73.4037 80.9999 73.4038 80.9999 73.4038 80.9999C73.4038 80.9999 73.4039 80.9999 73.4039 80.9999C73.4039 80.9999 73.4039 80.9999 73.404 80.9999C73.404 80.9999 73.404 80.9999 73.4041 80.9999C73.4041 80.9999 73.4042 80.9999 73.4042 80.9999C73.4042 80.9999 73.4043 80.9999 73.4043 80.9999C73.4043 80.9999 73.4044 80.9999 73.4044 80.9999C73.4044 80.9999 73.4045 80.9999 73.4045 80.9999C73.4046 80.9999 73.4046 80.9999 73.4046 80.9999C73.4047 80.9999 73.4047 80.9999 73.4048 80.9999C73.4048 80.9999 73.4049 80.9999 73.4049 80.9999C73.4049 80.9999 73.405 80.9999 73.405 80.9999C73.4051 80.9999 73.4051 80.9999 73.4052 80.9999C73.4052 80.9999 73.4053 80.9999 73.4053 80.9999C73.4053 80.9999 73.4054 80.9999 73.4054 80.9999C73.4055 80.9999 73.4055 80.9999 73.4056 80.9999C73.4056 80.9999 73.4057 80.9999 73.4057 80.9999C73.4058 80.9999 73.4058 80.9999 73.4059 80.9999C73.4059 80.9999 73.406 80.9999 73.406 80.9999C73.4061 80.9999 73.4062 80.9999 73.4062 80.9999C73.4063 80.9999 73.4063 80.9999 73.4064 80.9999C73.4064 80.9999 73.4065 80.9999 73.4065 80.9999C73.4066 80.9999 73.4067 80.9999 73.4067 80.9999C73.4068 80.9999 73.4068 80.9999 73.4069 80.9999C73.4069 80.9999 73.407 80.9999 73.4071 80.9999C73.4071 80.9999 73.4072 80.9999 73.4072 80.9999C73.4073 80.9999 73.4074 80.9999 73.4074 80.9999C73.4075 80.9999 73.4076 80.9999 73.4076 80.9999C73.4077 80.9999 73.4077 80.9999 73.4078 80.9999C73.4079 80.9999 73.4079 80.9999 73.408 80.9999C73.4081 80.9999 73.4081 80.9999 73.4082 80.9999C73.4083 80.9999 73.4083 80.9999 73.4084 80.9999C73.4085 80.9999 73.4085 80.9999 73.4086 80.9999C73.4087 80.9999 73.4087 80.9999 73.4088 80.9999C73.4089 80.9999 73.409 80.9999 73.409 80.9999C73.4091 80.9999 73.4092 80.9999 73.4093 80.9999C73.4093 80.9999 73.4094 80.9999 73.4095 80.9999C73.4095 80.9999 73.4096 80.9999 73.4097 80.9999C73.4098 80.9999 73.4098 80.9999 73.4099 80.9999C73.41 80.9999 73.4101 80.9999 73.4102 80.9999C73.4102 80.9999 73.4103 80.9999 73.4104 80.9999C73.4105 80.9999 73.4105 80.9999 73.4106 80.9999C73.4107 80.9999 73.4108 80.9999 73.4109 80.9999C73.4109 80.9999 73.411 80.9999 73.4111 80.9999C73.4112 80.9999 73.4113 80.9999 73.4114 80.9999C73.4114 80.9999 73.4115 80.9999 73.4116 80.9999C73.4117 80.9999 73.4118 80.9999 73.4119 80.9999C73.4119 80.9999 73.412 80.9999 73.4121 80.9999C73.4122 80.9999 73.4123 80.9999 73.4124 80.9999C73.4125 80.9999 73.4126 80.9999 73.4126 80.9999C73.4127 80.9999 73.4128 80.9999 73.4129 80.9999C73.413 80.9999 73.4131 80.9999 73.4132 80.9999C73.4133 80.9999 73.4134 80.9999 73.4135 80.9999C73.4135 80.9999 73.4136 80.9999 73.4137 80.9999C73.4138 80.9999 73.4139 80.9999 73.414 80.9999C73.4141 80.9999 73.4142 80.9999 73.4143 80.9999C73.4144 80.9999 73.4145 80.9999 73.4146 80.9999C73.4147 80.9999 73.4148 80.9999 73.4149 80.9999C73.415 80.9999 73.4151 80.9999 73.4152 80.9999C73.4153 80.9999 73.4154 80.9999 73.4155 80.9999C73.4156 80.9999 73.4157 80.9999 73.4158 80.9999C73.4159 80.9999 73.416 80.9999 73.4161 80.9999C73.4162 80.9999 73.4163 80.9999 73.4164 80.9999C73.4165 80.9999 73.4166 80.9999 73.4167 80.9999C73.4168 80.9999 73.4169 80.9999 73.417 80.9999C73.4171 80.9999 73.4172 80.9999 73.4173 80.9999C73.4174 80.9999 73.4175 80.9999 73.4177 80.9999C73.4178 80.9999 73.4179 80.9999 73.418 80.9999C73.4181 80.9999 73.4182 80.9999 73.4183 80.9999C73.4184 80.9999 73.4185 80.9999 73.4186 80.9999C73.4187 80.9999 73.4189 80.9999 73.419 80.9999C73.4191 80.9999 73.4192 80.9999 73.4193 80.9999C73.4194 80.9999 73.4195 80.9999 73.4196 80.9999C73.4198 80.9999 73.4199 80.9999 73.42 80.9999C73.4201 80.9999 73.4202 80.9999 73.4203 80.9999C73.4204 80.9999 73.4206 80.9999 73.4207 80.9999C73.4208 80.9999 73.4209 80.9999 73.421 80.9999C73.4212 80.9999 73.4213 80.9999 73.4214 80.9999C73.4215 80.9999 73.4216 80.9999 73.4217 80.9999C73.4219 80.9999 73.422 80.9999 73.4221 80.9999C73.4222 80.9999 73.4224 80.9999 73.4225 80.9999C73.4226 80.9999 73.4227 80.9999 73.4228 80.9999C73.423 80.9999 73.4231 80.9999 73.4232 80.9999C73.4233 80.9999 73.4235 80.9999 73.4236 80.9999C73.4237 80.9999 73.4238 80.9999 73.424 80.9999C73.4241 80.9999 73.4242 80.9999 73.4244 80.9999C73.4245 80.9999 73.4246 80.9999 73.4247 80.9999C73.4249 80.9999 73.425 80.9999 73.4251 80.9999C73.4253 80.9999 73.4254 80.9999 73.4255 80.9999C73.4256 80.9999 73.4258 80.9999 73.4259 80.9999C73.426 80.9999 73.4262 80.9999 73.4263 80.9999C73.4264 80.9999 73.4266 80.9999 73.4267 80.9999C73.4268 80.9999 73.427 80.9999 73.4271 80.9999C73.4272 80.9999 73.4274 80.9999 73.4275 80.9999C73.4276 80.9999 73.4278 80.9999 73.4279 80.9999C73.4281 80.9999 73.4282 80.9999 73.4283 80.9999C73.4285 80.9999 73.4286 80.9999 73.4287 80.9999C73.4289 80.9999 73.429 80.9999 73.4292 80.9999C73.4293 80.9999 73.4294 80.9999 73.4296 80.9999C73.4297 80.9999 73.4299 80.9999 73.43 80.9999C73.4301 80.9999 73.4303 80.9999 73.4304 80.9999C73.4306 80.9999 73.4307 80.9999 73.4309 80.9999C73.431 80.9999 73.4311 80.9999 73.4313 80.9999C73.4314 80.9999 73.4316 80.9999 73.4317 80.9999C73.4319 80.9999 73.432 80.9999 73.4322 80.9999C73.4323 80.9999 73.4325 80.9999 73.4326 80.9999C73.4328 80.9999 73.4329 80.9999 73.4331 80.9999C73.4332 80.9999 73.4333 80.9999 73.4335 80.9999C73.4336 80.9999 73.4338 80.9999 73.434 80.9999C73.4341 80.9999 73.4343 80.9999 73.4344 80.9999C73.4346 80.9999 73.4347 80.9999 73.4349 80.9999C73.435 80.9999 73.4352 80.9999 73.4353 80.9999C73.4355 80.9999 73.4356 80.9999 73.4358 80.9999C73.4359 80.9999 73.4361 80.9999 73.4362 80.9999C73.4364 80.9999 73.4366 80.9999 73.4367 80.9999C73.4369 80.9999 73.437 80.9999 73.4372 80.9999C73.4373 80.9999 73.4375 80.9999 73.4377 80.9999C73.4378 80.9999 73.438 80.9999 73.4381 80.9999C73.4383 80.9999 73.4384 80.9999 73.4386 80.9999C73.4388 80.9999 73.4389 80.9999 73.4391 80.9999C73.4393 80.9999 73.4394 80.9999 73.4396 80.9999C73.4397 80.9999 73.4399 80.9999 73.4401 80.9999C73.4402 80.9999 73.4404 80.9999 73.4406 80.9999C73.4407 80.9999 73.4409 80.9999 73.441 80.9999C73.4412 80.9999 73.4414 80.9999 73.4415 80.9999C73.4417 80.9999 73.4419 80.9999 73.442 80.9999C73.4422 80.9999 73.4424 80.9999 73.4425 80.9999C73.4427 80.9999 73.4429 80.9999 73.443 80.9999C73.4432 80.9999 73.4434 80.9999 73.4436 80.9999C73.4437 80.9999 73.4439 80.9999 73.4441 80.9999C73.4442 80.9999 73.4444 80.9999 73.4446 80.9999C73.4447 80.9999 73.4449 80.9999 73.4451 80.9999C73.4453 80.9999 73.4454 80.9999 73.4456 80.9999C73.4458 80.9999 73.446 80.9999 73.4461 80.9999C73.4463 80.9999 73.4465 80.9999 73.4467 80.9999C73.4468 80.9999 73.447 80.9999 73.4472 80.9999C73.4474 80.9999 73.4475 80.9999 73.4477 80.9999C73.4479 80.9999 73.4481 80.9999 73.4482 80.9999C73.4484 80.9999 73.4486 80.9999 73.4488 80.9999C73.449 80.9999 73.4491 80.9999 73.4493 80.9999C73.4495 80.9999 73.4497 80.9999 73.4499 80.9999C73.45 80.9999 73.4502 80.9999 73.4504 80.9999C73.4506 80.9999 73.4508 80.9999 73.4509 80.9999C73.4511 80.9999 73.4513 80.9999 73.4515 80.9999C73.4517 80.9999 73.4519 80.9999 73.452 80.9999C73.4522 80.9999 73.4524 80.9999 73.4526 80.9999C73.4528 80.9999 73.453 80.9999 73.4531 80.9999C73.4533 80.9999 73.4535 80.9999 73.4537 80.9999C73.4539 80.9999 73.4541 80.9999 73.4543 80.9999C73.4544 80.9999 73.4546 80.9999 73.4548 80.9999C73.455 80.9999 73.4552 80.9999 73.4554 80.9999C73.4556 80.9999 73.4558 80.9999 73.456 80.9999C73.4561 80.9999 73.4563 80.9999 73.4565 80.9999C73.4567 80.9999 73.4569 80.9999 73.4571 80.9999C73.4573 80.9999 73.4575 80.9999 73.4577 80.9999C73.4579 80.9999 73.4581 80.9999 73.4583 80.9999C73.4585 80.9999 73.4586 80.9999 73.4588 80.9999C73.459 80.9999 73.4592 80.9999 73.4594 80.9999C73.4596 80.9999 73.4598 80.9999 73.46 80.9999C73.4602 80.9999 73.4604 80.9999 73.4606 80.9999C73.4608 80.9999 73.461 80.9999 73.4612 80.9999C73.4614 80.9999 73.4616 80.9999 73.4618 80.9999C73.462 80.9999 73.4622 80.9999 73.4624 80.9999C73.4626 80.9999 73.4628 80.9999 73.463 80.9999C73.4632 80.9999 73.4634 80.9999 73.4636 80.9999C73.4638 80.9999 73.464 80.9999 73.4642 80.9999C73.4644 80.9999 73.4646 80.9999 73.4648 80.9999C73.465 80.9999 73.4652 80.9999 73.4654 80.9999C73.4656 80.9999 73.4658 80.9999 73.466 80.9999C73.4662 80.9999 73.4664 80.9999 73.4666 80.9999C73.4668 80.9999 73.467 80.9999 73.4672 80.9999C73.4674 80.9999 73.4677 80.9999 73.4679 80.9999C73.4681 80.9999 73.4683 80.9999 73.4685 80.9999C73.4687 80.9999 73.4689 80.9999 73.4691 80.9999C73.4693 80.9999 73.4695 80.9999 73.4697 80.9999C73.4699 80.9999 73.4701 80.9999 73.4704 80.9999C73.4706 80.9999 73.4708 80.9999 73.471 80.9999C73.4712 80.9999 73.4714 80.9999 73.4716 80.9999C73.4718 80.9999 73.472 80.9999 73.4723 80.9999C73.4725 80.9999 73.4727 80.9999 73.4729 80.9999C73.4731 80.9999 73.4733 80.9999 73.4735 80.9999C73.4738 80.9999 73.474 80.9999 73.4742 80.9999C73.4744 80.9999 73.4746 80.9999 73.4748 80.9999C73.475 80.9999 73.4753 80.9999 73.4755 80.9999C73.4757 80.9999 73.4759 80.9999 73.4761 80.9999C73.4763 80.9999 73.4766 80.9999 73.4768 80.9999C73.477 80.9999 73.4772 80.9999 73.4774 80.9999C73.4776 80.9999 73.4779 80.9999 73.4781 80.9999C73.4783 80.9999 73.4785 80.9999 73.4787 80.9999C73.479 80.9999 73.4792 80.9999 73.4794 80.9999C73.4796 80.9999 73.4798 80.9999 73.4801 80.9999C73.4803 80.9999 73.4805 80.9999 73.4807 80.9999C73.481 80.9999 73.4812 80.9999 73.4814 80.9999C73.4816 80.9999 73.4819 80.9999 73.4821 80.9999C73.4823 80.9999 73.4825 80.9999 73.4827 80.9999C73.483 80.9999 73.4832 80.9999 73.4834 80.9999C73.4836 80.9999 73.4839 80.9999 73.4841 80.9999C73.4843 80.9999 73.4846 80.9999 73.4848 80.9999C73.485 80.9999 73.4852 80.9999 73.4855 80.9999C73.4857 80.9999 73.4859 80.9999 73.4861 80.9999C73.4864 80.9999 73.4866 80.9999 73.4868 80.9999C73.4871 80.9999 73.4873 80.9999 73.4875 80.9999C73.4877 80.9999 73.488 80.9999 73.4882 80.9999C73.4884 80.9999 73.4887 80.9999 73.4889 80.9999C73.4891 80.9999 73.4894 80.9999 73.4896 80.9999C73.4898 80.9999 73.4901 80.9999 73.4903 80.9999C73.4905 80.9999 73.4908 80.9999 73.491 80.9999C73.4912 80.9999 73.4915 80.9999 73.4917 80.9999C73.4919 80.9999 73.4922 80.9999 73.4924 80.9999C73.4926 80.9999 73.4929 80.9999 73.4931 80.9999C73.4933 80.9999 73.4936 80.9999 73.4938 80.9999C73.494 80.9999 73.4943 80.9999 73.4945 80.9999C73.4948 80.9999 73.495 80.9999 73.4952 80.9999C73.4955 80.9999 73.4957 80.9999 73.4959 80.9999C73.4962 80.9999 73.4964 80.9999 73.4967 80.9999C73.4969 80.9999 73.4971 80.9999 73.4974 80.9999C73.4976 80.9999 73.4979 80.9999 73.4981 80.9999C73.4983 80.9999 73.4986 80.9999 73.4988 80.9999C73.4991 80.9999 73.4993 80.9999 73.4996 80.9999C73.4998 80.9999 73.5 80.9999 73.5003 80.9999C73.5005 80.9999 73.5008 80.9999 73.501 80.9999C73.5012 80.9999 73.5015 80.9999 73.5017 80.9999C73.502 80.9999 73.5022 80.9999 73.5025 80.9999C73.5027 80.9999 73.503 80.9999 73.5032 80.9999C73.5035 80.9999 73.5037 80.9999 73.5039 80.9999C73.5042 80.9999 73.5044 80.9999 73.5047 80.9999C73.5049 80.9999 73.5052 80.9999 73.5054 80.9999C73.5057 80.9999 73.5059 80.9999 73.5062 80.9999C73.5064 80.9999 73.5067 80.9999 73.5069 80.9999C73.5072 80.9999 73.5074 80.9999 73.5077 80.9999C73.5079 80.9999 73.5082 80.9999 73.5084 80.9999C73.5087 80.9999 73.5089 80.9999 73.5092 80.9999C73.5094 80.9999 73.5097 80.9999 73.5099 80.9999C73.5102 80.9999 73.5104 80.9999 73.5107 80.9999C73.5109 80.9999 73.5112 80.9999 73.5114 80.9999C73.5117 80.9999 73.5119 80.9999 73.5122 80.9999C73.5124 80.9999 73.5127 80.9999 73.5129 80.9999C73.5132 80.9999 73.5135 80.9999 73.5137 80.9999C73.514 80.9999 73.5142 80.9999 73.5145 80.9999C73.5147 80.9999 73.515 80.9999 73.5152 80.9999C73.5155 80.9999 73.5157 80.9999 73.516 80.9999C73.5163 80.9999 73.5165 80.9999 73.5168 80.9999C73.517 80.9999 73.5173 80.9999 73.5175 80.9999C73.5178 80.9999 73.5181 80.9999 73.5183 80.9999C73.5186 80.9999 73.5188 80.9999 73.5191 80.9999C73.5194 80.9999 73.5196 80.9999 73.5199 80.9999C73.5201 80.9999 73.5204 80.9999 73.5207 80.9999C73.5209 80.9999 73.5212 80.9999 73.5214 80.9999C73.5217 80.9999 73.522 80.9999 73.5222 80.9999C73.5225 80.9999 73.5227 80.9999 73.523 80.9999C73.5233 80.9999 73.5235 80.9999 73.5238 80.9999C73.5241 80.9999 73.5243 80.9999 73.5246 80.9999C73.5248 80.9999 73.5251 80.9999 73.5254 80.9999C73.5256 80.9999 73.5259 80.9999 73.5262 80.9999C73.5264 80.9999 73.5267 80.9999 73.527 80.9999C73.5272 80.9999 73.5275 80.9999 73.5278 80.9999C73.528 80.9999 73.5283 80.9999 73.5286 80.9999C73.5288 80.9999 73.5291 80.9999 73.5294 80.9999C73.5296 80.9999 73.5299 80.9999 73.5302 80.9999C73.5304 80.9999 73.5307 80.9999 73.531 80.9999C73.5312 80.9999 73.5315 80.9999 73.5318 80.9999C73.532 80.9999 73.5323 80.9999 73.5326 80.9999C73.5328 80.9999 73.5331 80.9999 73.5334 80.9999C73.5336 80.9999 73.5339 80.9999 73.5342 80.9999C73.5345 80.9999 73.5347 80.9999 73.535 80.9999C73.5353 80.9999 73.5355 80.9999 73.5358 80.9999C73.5361 80.9999 73.5364 80.9999 73.5366 80.9999C73.5369 80.9999 73.5372 80.9999 73.5374 80.9999C73.5377 80.9999 73.538 80.9999 73.5383 80.9999C73.5385 80.9999 73.5388 80.9999 73.5391 80.9999C73.5394 80.9999 73.5396 80.9999 73.5399 80.9999C73.5402 80.9999 73.5405 80.9999 73.5407 80.9999C73.541 80.9999 73.5413 80.9999 73.5416 80.9999C73.5418 80.9999 73.5421 80.9999 73.5424 80.9999C73.5427 80.9999 73.5429 80.9999 73.5432 80.9999C73.5435 80.9999 73.5438 80.9999 73.544 80.9999C73.5443 80.9999 73.5446 80.9999 73.5449 80.9999C73.5452 80.9999 73.5454 80.9999 73.5457 80.9999C73.546 80.9999 73.5463 80.9999 73.5465 80.9999C73.5468 80.9999 73.5471 80.9999 73.5474 80.9999C73.5477 80.9999 73.5479 80.9999 73.5482 80.9999C73.5485 80.9999 73.5488 80.9999 73.5491 80.9999C73.5493 80.9999 73.5496 80.9999 73.5499 80.9999C73.5502 80.9999 73.5505 80.9999 73.5507 80.9999C73.551 80.9999 73.5513 80.9999 73.5516 80.9999C73.5519 80.9999 73.5522 80.9999 73.5524 80.9999C73.5527 80.9999 73.553 80.9999 73.5533 80.9999C73.5536 80.9999 73.5539 80.9999 73.5541 80.9999C73.5544 80.9999 73.5547 80.9999 73.555 80.9999C73.5553 80.9999 73.5556 80.9999 73.5558 80.9999C73.5561 80.9999 73.5564 80.9999 73.5567 80.9999C73.557 80.9999 73.5573 80.9999 73.5576 80.9999C73.5578 80.9999 73.5581 80.9999 73.5584 80.9999C73.5587 80.9999 73.559 80.9999 73.5593 80.9999C73.5596 80.9999 73.5598 80.9999 73.5601 80.9999C73.5604 80.9999 73.5607 80.9999 73.561 80.9999C73.5613 80.9999 73.5616 80.9999 73.5618 80.9999C73.5621 80.9999 73.5624 80.9999 73.5627 80.9999C73.563 80.9999 73.5633 80.9999 73.5636 80.9999C73.5639 80.9999 73.5642 80.9999 73.5644 80.9999C73.5647 80.9999 73.565 80.9999 73.5653 80.9999C73.5656 80.9999 73.5659 80.9999 73.5662 80.9999C73.5665 80.9999 73.5668 80.9999 73.5671 80.9999C73.5674 80.9999 73.5676 80.9999 73.5679 80.9999C73.5682 80.9999 73.5685 80.9999 73.5688 80.9999C73.5691 80.9999 73.5694 80.9999 73.5697 80.9999C73.57 80.9999 73.5703 80.9999 73.5706 80.9999C73.5709 80.9999 73.5711 80.9999 73.5714 80.9999C73.5717 80.9999 73.572 80.9999 73.5723 80.9999C73.5726 80.9999 73.5729 80.9999 73.5732 80.9999C73.5735 80.9999 73.5738 80.9999 73.5741 80.9999C73.5744 80.9999 73.5747 80.9999 73.575 80.9999C73.5753 80.9999 73.5756 80.9999 73.5759 80.9999C73.5762 80.9999 73.5764 80.9999 73.5767 80.9999C73.577 80.9999 73.5773 80.9999 73.5776 80.9999C73.5779 80.9999 73.5782 80.9999 73.5785 80.9999C73.5788 80.9999 73.5791 80.9999 73.5794 80.9999C73.5797 80.9999 73.58 80.9999 73.5803 80.9999C73.5806 80.9999 73.5809 80.9999 73.5812 80.9999C73.5815 80.9999 73.5818 80.9999 73.5821 80.9999C73.5824 80.9999 73.5827 80.9999 73.583 80.9999C73.5833 80.9999 73.5836 80.9999 73.5839 80.9999C73.5842 80.9999 73.5845 80.9999 73.5848 80.9999C73.5851 80.9999 73.5854 80.9999 73.5857 80.9999C73.586 80.9999 73.5863 80.9999 73.5866 80.9999C73.5869 80.9999 73.5872 80.9999 73.5875 80.9999C73.5878 80.9999 73.5881 80.9999 73.5884 80.9999C73.5887 80.9999 73.589 80.9999 73.5893 80.9999C73.5896 80.9999 73.5899 80.9999 73.5902 80.9999C73.5905 80.9999 73.5908 80.9999 73.5911 80.9999C73.5914 80.9999 73.5917 80.9999 73.592 80.9999C73.5923 80.9999 73.5926 80.9999 73.5929 80.9999C73.5932 80.9999 73.5935 80.9999 73.5938 80.9999C73.5942 80.9999 73.5945 80.9999 73.5948 80.9999C73.5951 80.9999 73.5954 80.9999 73.5957 80.9999C73.596 80.9999 73.5963 80.9999 73.5966 80.9999C73.5969 80.9999 73.5972 80.9999 73.5975 80.9999C73.5978 80.9999 73.5981 80.9999 73.5984 80.9999C73.5987 80.9999 73.599 80.9999 73.5993 80.9999C73.5996 80.9999 73.6 80.9999 73.6003 80.9999C73.6006 80.9999 73.6009 80.9999 73.6012 80.9999C73.6015 80.9999 73.6018 80.9999 73.6021 80.9999C73.6024 80.9999 73.6027 80.9999 73.603 80.9999C73.6033 80.9999 73.6036 80.9999 73.6039 80.9999C73.6043 80.9999 73.6046 80.9999 73.6049 80.9999C73.6052 80.9999 73.6055 80.9999 73.6058 80.9999C73.6061 80.9999 73.6064 80.9999 73.6067 80.9999C73.607 80.9999 73.6073 80.9999 73.6077 80.9999C73.608 80.9999 73.6083 80.9999 73.6086 80.9999C73.6089 80.9999 73.6092 80.9999 73.6095 80.9999C73.6098 80.9999 73.6101 80.9999 73.6104 80.9999C73.6108 80.9999 73.6111 80.9999 73.6114 80.9999C73.6117 80.9999 73.612 80.9999 73.6123 80.9999C73.6126 80.9999 73.6129 80.9999 73.6132 80.9999C73.6136 80.9999 73.6139 80.9999 73.6142 80.9999C73.6145 80.9999 73.6148 80.9999 73.6151 80.9999C73.6154 80.9999 73.6157 80.9999 73.6161 80.9999C73.6164 80.9999 73.6167 80.9999 73.617 80.9999C73.6173 80.9999 73.6176 80.9999 73.6179 80.9999C73.6183 80.9999 73.6186 80.9999 73.6189 80.9999C73.6192 80.9999 73.6195 80.9999 73.6198 80.9999C73.6201 80.9999 73.6204 80.9999 73.6208 80.9999C73.6211 80.9999 73.6214 80.9999 73.6217 80.9999C73.622 80.9999 73.6223 80.9999 73.6227 80.9999C73.623 80.9999 73.6233 80.9999 73.6236 80.9999C73.6239 80.9999 73.6242 80.9999 73.6245 80.9999C73.6249 80.9999 73.6252 80.9999 73.6255 80.9999C73.6258 80.9999 73.6261 80.9999 73.6264 80.9999C73.6268 80.9999 73.6271 80.9999 73.6274 80.9999C73.6277 80.9999 73.628 80.9999 73.6283 80.9999C73.6287 80.9999 73.629 80.9999 73.6293 80.9999C73.6296 80.9999 73.6299 80.9999 73.6302 80.9999C73.6306 80.9999 73.6309 80.9999 73.6312 80.9999C73.6315 80.9999 73.6318 80.9999 73.6322 80.9999C73.6325 80.9999 73.6328 80.9999 73.6331 80.9999C73.6334 80.9999 73.6337 80.9999 73.6341 80.9999C73.6344 80.9999 73.6347 80.9999 73.635 80.9999C73.6353 80.9999 73.6357 80.9999 73.636 80.9999C73.6363 80.9999 73.6366 80.9999 73.6369 80.9999C73.6373 80.9999 73.6376 80.9999 73.6379 80.9999C73.6382 80.9999 73.6385 80.9999 73.6389 80.9999C73.6392 80.9999 73.6395 80.9999 73.6398 80.9999C73.6401 80.9999 73.6405 80.9999 73.6408 80.9999C73.6411 80.9999 73.6414 80.9999 73.6417 80.9999C73.6421 80.9999 73.6424 80.9999 73.6427 80.9999C73.643 80.9999 73.6433 80.9999 73.6437 80.9999C73.644 80.9999 73.6443 80.9999 73.6446 80.9999C73.645 80.9999 73.6453 80.9999 73.6456 80.9999C73.6459 80.9999 73.6462 80.9999 73.6466 80.9999C73.6469 80.9999 73.6472 80.9999 73.6475 80.9999C73.6479 80.9999 73.6482 80.9999 73.6485 80.9999C73.6488 80.9999 73.6491 80.9999 73.6495 80.9999C73.6498 80.9999 73.6501 80.9999 73.6504 80.9999C73.6508 80.9999 73.6511 80.9999 73.6514 80.9999C73.6517 80.9999 73.6521 80.9999 73.6524 80.9999C73.6527 80.9999 73.653 80.9999 73.6534 80.9999C73.6537 80.9999 73.654 80.9999 73.6543 80.9999C73.6546 80.9999 73.655 80.9999 73.6553 80.9999C73.6556 80.9999 73.6559 80.9999 73.6563 80.9999C73.6566 80.9999 73.6569 80.9999 73.6572 80.9999C73.6576 80.9999 73.6579 80.9999 73.6582 80.9999C73.6585 80.9999 73.6589 80.9999 73.6592 80.9999C73.6595 80.9999 73.6598 80.9999 73.6602 80.9999C73.6605 80.9999 73.6608 80.9999 73.6612 80.9999C73.6615 80.9999 73.6618 80.9999 73.6621 80.9999C73.6625 80.9999 73.6628 80.9999 73.6631 80.9999C73.6634 80.9999 73.6638 80.9999 73.6641 80.9999C73.6644 80.9999 73.6647 80.9999 73.6651 80.9999C73.6654 80.9999 73.6657 80.9999 73.666 80.9999C73.6664 80.9999 73.6667 80.9999 73.667 80.9999C73.6674 80.9999 73.6677 80.9999 73.668 80.9999C73.6683 80.9999 73.6687 80.9999 73.669 80.9999C73.6693 80.9999 73.6696 80.9999 73.67 80.9999C73.6703 80.9999 73.6706 80.9999 73.671 80.9999C73.6713 80.9999 73.6716 80.9999 73.6719 80.9999C73.6723 80.9999 73.6726 80.9999 73.6729 80.9999C73.6733 80.9999 73.6736 80.9999 73.6739 80.9999C73.6742 80.9999 73.6746 80.9999 73.6749 80.9999C73.6752 80.9999 73.6756 80.9999 73.6759 80.9999C73.6762 80.9999 73.6765 80.9999 73.6769 80.9999C73.6772 80.9999 73.6775 80.9999 73.6779 80.9999C73.6782 80.9999 73.6785 80.9999 73.6788 80.9999C73.6792 80.9999 73.6795 80.9999 73.6798 80.9999C73.6802 80.9999 73.6805 80.9999 73.6808 80.9999C73.6812 80.9999 73.6815 80.9999 73.6818 80.9999C73.6821 80.9999 73.6825 80.9999 73.6828 80.9999C73.6831 80.9999 73.6835 80.9999 73.6838 80.9999C73.6841 80.9999 73.6845 80.9999 73.6848 80.9999C73.6851 80.9999 73.6854 80.9999 73.6858 80.9999C73.6861 80.9999 73.6864 80.9999 73.6868 80.9999C73.6871 80.9999 73.6874 80.9999 73.6878 80.9999C73.6881 80.9999 73.6884 80.9999 73.6887 80.9999C73.6891 80.9999 73.6894 80.9999 73.6897 80.9999C73.6901 80.9999 73.6904 80.9999 73.6907 80.9999C73.6911 80.9999 73.6914 80.9999 73.6917 80.9999C73.6921 80.9999 73.6924 80.9999 73.6927 80.9999C73.6931 80.9999 73.6934 80.9999 73.6937 80.9999C73.6941 80.9999 73.6944 80.9999 73.6947 80.9999C73.695 80.9999 73.6954 80.9999 73.6957 80.9999C73.696 80.9999 73.6964 80.9999 73.6967 80.9999C73.697 80.9999 73.6974 80.9999 73.6977 80.9999C73.698 80.9999 73.6984 80.9999 73.6987 80.9999C73.699 80.9999 73.6994 80.9999 73.6997 80.9999C73.7 80.9999 73.7004 80.9999 73.7007 80.9999C73.701 80.9999 73.7014 80.9999 73.7017 80.9999C73.702 80.9999 73.7024 80.9999 73.7027 80.9999C73.703 80.9999 73.7034 80.9999 73.7037 80.9999C73.704 80.9999 73.7044 80.9999 73.7047 80.9999C73.705 80.9999 73.7054 80.9999 73.7057 80.9999C73.706 80.9999 73.7064 80.9999 73.7067 80.9999C73.707 80.9999 73.7073 80.9999 73.7077 80.9999C73.708 80.9999 73.7083 80.9999 73.7087 80.9999C73.709 80.9999 73.7093 80.9999 73.7097 80.9999C73.71 80.9999 73.7104 80.9999 73.7107 80.9999C73.711 80.9999 73.7114 80.9999 73.7117 80.9999C73.712 80.9999 73.7124 80.9999 73.7127 80.9999C73.713 80.9999 73.7134 80.9999 73.7137 80.9999C73.714 80.9999 73.7144 80.9999 73.7147 80.9999C73.715 80.9999 73.7154 80.9999 73.7157 80.9999C73.716 80.9999 73.7164 80.9999 73.7167 80.9999C73.717 80.9999 73.7174 80.9999 73.7177 80.9999C73.718 80.9999 73.7184 80.9999 73.7187 80.9999C73.719 80.9999 73.7194 80.9999 73.7197 80.9999C73.72 80.9999 73.7204 80.9999 73.7207 80.9999C73.721 80.9999 73.7214 80.9999 73.7217 80.9999C73.722 80.9999 73.7224 80.9999 73.7227 80.9999C73.723 80.9999 73.7234 80.9999 73.7237 80.9999C73.724 80.9999 73.7244 80.9999 73.7247 80.9999C73.725 80.9999 73.7254 80.9999 73.7257 80.9999C73.7261 80.9999 73.7264 80.9999 73.7267 80.9999C73.7271 80.9999 73.7274 80.9999 73.7277 80.9999C73.7281 80.9999 73.7284 80.9999 73.7287 80.9999C73.7291 80.9999 73.7294 80.9999 73.7297 80.9999C73.7301 80.9999 73.7304 80.9999 73.7307 80.9999C73.7311 80.9999 73.7314 80.9999 73.7317 80.9999C73.7321 80.9999 73.7324 80.9999 73.7327 80.9999C73.7331 80.9999 73.7334 80.9999 73.7338 80.9999C73.7341 80.9999 73.7344 80.9999 73.7348 80.9999C73.7351 80.9999 73.7354 80.9999 73.7358 80.9999C73.7361 80.9999 73.7364 80.9999 73.7368 80.9999C73.7371 80.9999 73.7374 80.9999 73.7378 80.9999C73.7381 80.9999 73.7384 80.9999 73.7388 80.9999C73.7391 80.9999 73.7394 80.9999 73.7398 80.9999C73.7401 80.9999 73.7404 80.9999 73.7408 80.9999C73.7411 80.9999 73.7415 80.9999 73.7418 80.9999C73.7421 80.9999 73.7425 80.9999 73.7428 80.9999C73.7431 80.9999 73.7435 80.9999 73.7438 80.9999C73.7441 80.9999 73.7445 80.9999 73.7448 80.9999C73.7451 80.9999 73.7455 80.9999 73.7458 80.9999V76.9999C73.7455 76.9999 73.7451 76.9999 73.7448 76.9999C73.7445 76.9999 73.7441 76.9999 73.7438 76.9999C73.7435 76.9999 73.7431 76.9999 73.7428 76.9999C73.7425 76.9999 73.7421 76.9999 73.7418 76.9999C73.7415 76.9999 73.7411 76.9999 73.7408 76.9999C73.7404 76.9999 73.7401 76.9999 73.7398 76.9999C73.7394 76.9999 73.7391 76.9999 73.7388 76.9999C73.7384 76.9999 73.7381 76.9999 73.7378 76.9999C73.7374 76.9999 73.7371 76.9999 73.7368 76.9999C73.7364 76.9999 73.7361 76.9999 73.7358 76.9999C73.7354 76.9999 73.7351 76.9999 73.7348 76.9999C73.7344 76.9999 73.7341 76.9999 73.7338 76.9999C73.7334 76.9999 73.7331 76.9999 73.7327 76.9999C73.7324 76.9999 73.7321 76.9999 73.7317 76.9999C73.7314 76.9999 73.7311 76.9999 73.7307 76.9999C73.7304 76.9999 73.7301 76.9999 73.7297 76.9999C73.7294 76.9999 73.7291 76.9999 73.7287 76.9999C73.7284 76.9999 73.7281 76.9999 73.7277 76.9999C73.7274 76.9999 73.7271 76.9999 73.7267 76.9999C73.7264 76.9999 73.7261 76.9999 73.7257 76.9999C73.7254 76.9999 73.725 76.9999 73.7247 76.9999C73.7244 76.9999 73.724 76.9999 73.7237 76.9999C73.7234 76.9999 73.723 76.9999 73.7227 76.9999C73.7224 76.9999 73.722 76.9999 73.7217 76.9999C73.7214 76.9999 73.721 76.9999 73.7207 76.9999C73.7204 76.9999 73.72 76.9999 73.7197 76.9999C73.7194 76.9999 73.719 76.9999 73.7187 76.9999C73.7184 76.9999 73.718 76.9999 73.7177 76.9999C73.7174 76.9999 73.717 76.9999 73.7167 76.9999C73.7164 76.9999 73.716 76.9999 73.7157 76.9999C73.7154 76.9999 73.715 76.9999 73.7147 76.9999C73.7144 76.9999 73.714 76.9999 73.7137 76.9999C73.7134 76.9999 73.713 76.9999 73.7127 76.9999C73.7124 76.9999 73.712 76.9999 73.7117 76.9999C73.7114 76.9999 73.711 76.9999 73.7107 76.9999C73.7104 76.9999 73.71 76.9999 73.7097 76.9999C73.7093 76.9999 73.709 76.9999 73.7087 76.9999C73.7083 76.9999 73.708 76.9999 73.7077 76.9999C73.7073 76.9999 73.707 76.9999 73.7067 76.9999C73.7064 76.9999 73.706 76.9999 73.7057 76.9999C73.7054 76.9999 73.705 76.9999 73.7047 76.9999C73.7044 76.9999 73.704 76.9999 73.7037 76.9999C73.7034 76.9999 73.703 76.9999 73.7027 76.9999C73.7024 76.9999 73.702 76.9999 73.7017 76.9999C73.7014 76.9999 73.701 76.9999 73.7007 76.9999C73.7004 76.9999 73.7 76.9999 73.6997 76.9999C73.6994 76.9999 73.699 76.9999 73.6987 76.9999C73.6984 76.9999 73.698 76.9999 73.6977 76.9999C73.6974 76.9999 73.697 76.9999 73.6967 76.9999C73.6964 76.9999 73.696 76.9999 73.6957 76.9999C73.6954 76.9999 73.695 76.9999 73.6947 76.9999C73.6944 76.9999 73.6941 76.9999 73.6937 76.9999C73.6934 76.9999 73.6931 76.9999 73.6927 76.9999C73.6924 76.9999 73.6921 76.9999 73.6917 76.9999C73.6914 76.9999 73.6911 76.9999 73.6907 76.9999C73.6904 76.9999 73.6901 76.9999 73.6897 76.9999C73.6894 76.9999 73.6891 76.9999 73.6887 76.9999C73.6884 76.9999 73.6881 76.9999 73.6878 76.9999C73.6874 76.9999 73.6871 76.9999 73.6868 76.9999C73.6864 76.9999 73.6861 76.9999 73.6858 76.9999C73.6854 76.9999 73.6851 76.9999 73.6848 76.9999C73.6845 76.9999 73.6841 76.9999 73.6838 76.9999C73.6835 76.9999 73.6831 76.9999 73.6828 76.9999C73.6825 76.9999 73.6821 76.9999 73.6818 76.9999C73.6815 76.9999 73.6812 76.9999 73.6808 76.9999C73.6805 76.9999 73.6802 76.9999 73.6798 76.9999C73.6795 76.9999 73.6792 76.9999 73.6788 76.9999C73.6785 76.9999 73.6782 76.9999 73.6779 76.9999C73.6775 76.9999 73.6772 76.9999 73.6769 76.9999C73.6765 76.9999 73.6762 76.9999 73.6759 76.9999C73.6756 76.9999 73.6752 76.9999 73.6749 76.9999C73.6746 76.9999 73.6742 76.9999 73.6739 76.9999C73.6736 76.9999 73.6733 76.9999 73.6729 76.9999C73.6726 76.9999 73.6723 76.9999 73.6719 76.9999C73.6716 76.9999 73.6713 76.9999 73.671 76.9999C73.6706 76.9999 73.6703 76.9999 73.67 76.9999C73.6696 76.9999 73.6693 76.9999 73.669 76.9999C73.6687 76.9999 73.6683 76.9999 73.668 76.9999C73.6677 76.9999 73.6674 76.9999 73.667 76.9999C73.6667 76.9999 73.6664 76.9999 73.666 76.9999C73.6657 76.9999 73.6654 76.9999 73.6651 76.9999C73.6647 76.9999 73.6644 76.9999 73.6641 76.9999C73.6638 76.9999 73.6634 76.9999 73.6631 76.9999C73.6628 76.9999 73.6625 76.9999 73.6621 76.9999C73.6618 76.9999 73.6615 76.9999 73.6612 76.9999C73.6608 76.9999 73.6605 76.9999 73.6602 76.9999C73.6598 76.9999 73.6595 76.9999 73.6592 76.9999C73.6589 76.9999 73.6585 76.9999 73.6582 76.9999C73.6579 76.9999 73.6576 76.9999 73.6572 76.9999C73.6569 76.9999 73.6566 76.9999 73.6563 76.9999C73.6559 76.9999 73.6556 76.9999 73.6553 76.9999C73.655 76.9999 73.6546 76.9999 73.6543 76.9999C73.654 76.9999 73.6537 76.9999 73.6534 76.9999C73.653 76.9999 73.6527 76.9999 73.6524 76.9999C73.6521 76.9999 73.6517 76.9999 73.6514 76.9999C73.6511 76.9999 73.6508 76.9999 73.6504 76.9999C73.6501 76.9999 73.6498 76.9999 73.6495 76.9999C73.6491 76.9999 73.6488 76.9999 73.6485 76.9999C73.6482 76.9999 73.6479 76.9999 73.6475 76.9999C73.6472 76.9999 73.6469 76.9999 73.6466 76.9999C73.6462 76.9999 73.6459 76.9999 73.6456 76.9999C73.6453 76.9999 73.645 76.9999 73.6446 76.9999C73.6443 76.9999 73.644 76.9999 73.6437 76.9999C73.6433 76.9999 73.643 76.9999 73.6427 76.9999C73.6424 76.9999 73.6421 76.9999 73.6417 76.9999C73.6414 76.9999 73.6411 76.9999 73.6408 76.9999C73.6405 76.9999 73.6401 76.9999 73.6398 76.9999C73.6395 76.9999 73.6392 76.9999 73.6389 76.9999C73.6385 76.9999 73.6382 76.9999 73.6379 76.9999C73.6376 76.9999 73.6373 76.9999 73.6369 76.9999C73.6366 76.9999 73.6363 76.9999 73.636 76.9999C73.6357 76.9999 73.6353 76.9999 73.635 76.9999C73.6347 76.9999 73.6344 76.9999 73.6341 76.9999C73.6337 76.9999 73.6334 76.9999 73.6331 76.9999C73.6328 76.9999 73.6325 76.9999 73.6322 76.9999C73.6318 76.9999 73.6315 76.9999 73.6312 76.9999C73.6309 76.9999 73.6306 76.9999 73.6302 76.9999C73.6299 76.9999 73.6296 76.9999 73.6293 76.9999C73.629 76.9999 73.6287 76.9999 73.6283 76.9999C73.628 76.9999 73.6277 76.9999 73.6274 76.9999C73.6271 76.9999 73.6268 76.9999 73.6264 76.9999C73.6261 76.9999 73.6258 76.9999 73.6255 76.9999C73.6252 76.9999 73.6249 76.9999 73.6245 76.9999C73.6242 76.9999 73.6239 76.9999 73.6236 76.9999C73.6233 76.9999 73.623 76.9999 73.6227 76.9999C73.6223 76.9999 73.622 76.9999 73.6217 76.9999C73.6214 76.9999 73.6211 76.9999 73.6208 76.9999C73.6204 76.9999 73.6201 76.9999 73.6198 76.9999C73.6195 76.9999 73.6192 76.9999 73.6189 76.9999C73.6186 76.9999 73.6183 76.9999 73.6179 76.9999C73.6176 76.9999 73.6173 76.9999 73.617 76.9999C73.6167 76.9999 73.6164 76.9999 73.6161 76.9999C73.6157 76.9999 73.6154 76.9999 73.6151 76.9999C73.6148 76.9999 73.6145 76.9999 73.6142 76.9999C73.6139 76.9999 73.6136 76.9999 73.6132 76.9999C73.6129 76.9999 73.6126 76.9999 73.6123 76.9999C73.612 76.9999 73.6117 76.9999 73.6114 76.9999C73.6111 76.9999 73.6108 76.9999 73.6104 76.9999C73.6101 76.9999 73.6098 76.9999 73.6095 76.9999C73.6092 76.9999 73.6089 76.9999 73.6086 76.9999C73.6083 76.9999 73.608 76.9999 73.6077 76.9999C73.6073 76.9999 73.607 76.9999 73.6067 76.9999C73.6064 76.9999 73.6061 76.9999 73.6058 76.9999C73.6055 76.9999 73.6052 76.9999 73.6049 76.9999C73.6046 76.9999 73.6043 76.9999 73.6039 76.9999C73.6036 76.9999 73.6033 76.9999 73.603 76.9999C73.6027 76.9999 73.6024 76.9999 73.6021 76.9999C73.6018 76.9999 73.6015 76.9999 73.6012 76.9999C73.6009 76.9999 73.6006 76.9999 73.6003 76.9999C73.6 76.9999 73.5996 76.9999 73.5993 76.9999C73.599 76.9999 73.5987 76.9999 73.5984 76.9999C73.5981 76.9999 73.5978 76.9999 73.5975 76.9999C73.5972 76.9999 73.5969 76.9999 73.5966 76.9999C73.5963 76.9999 73.596 76.9999 73.5957 76.9999C73.5954 76.9999 73.5951 76.9999 73.5948 76.9999C73.5945 76.9999 73.5942 76.9999 73.5938 76.9999C73.5935 76.9999 73.5932 76.9999 73.5929 76.9999C73.5926 76.9999 73.5923 76.9999 73.592 76.9999C73.5917 76.9999 73.5914 76.9999 73.5911 76.9999C73.5908 76.9999 73.5905 76.9999 73.5902 76.9999C73.5899 76.9999 73.5896 76.9999 73.5893 76.9999C73.589 76.9999 73.5887 76.9999 73.5884 76.9999C73.5881 76.9999 73.5878 76.9999 73.5875 76.9999C73.5872 76.9999 73.5869 76.9999 73.5866 76.9999C73.5863 76.9999 73.586 76.9999 73.5857 76.9999C73.5854 76.9999 73.5851 76.9999 73.5848 76.9999C73.5845 76.9999 73.5842 76.9999 73.5839 76.9999C73.5836 76.9999 73.5833 76.9999 73.583 76.9999C73.5827 76.9999 73.5824 76.9999 73.5821 76.9999C73.5818 76.9999 73.5815 76.9999 73.5812 76.9999C73.5809 76.9999 73.5806 76.9999 73.5803 76.9999C73.58 76.9999 73.5797 76.9999 73.5794 76.9999C73.5791 76.9999 73.5788 76.9999 73.5785 76.9999C73.5782 76.9999 73.5779 76.9999 73.5776 76.9999C73.5773 76.9999 73.577 76.9999 73.5767 76.9999C73.5764 76.9999 73.5762 76.9999 73.5759 76.9999C73.5756 76.9999 73.5753 76.9999 73.575 76.9999C73.5747 76.9999 73.5744 76.9999 73.5741 76.9999C73.5738 76.9999 73.5735 76.9999 73.5732 76.9999C73.5729 76.9999 73.5726 76.9999 73.5723 76.9999C73.572 76.9999 73.5717 76.9999 73.5714 76.9999C73.5711 76.9999 73.5709 76.9999 73.5706 76.9999C73.5703 76.9999 73.57 76.9999 73.5697 76.9999C73.5694 76.9999 73.5691 76.9999 73.5688 76.9999C73.5685 76.9999 73.5682 76.9999 73.5679 76.9999C73.5676 76.9999 73.5674 76.9999 73.5671 76.9999C73.5668 76.9999 73.5665 76.9999 73.5662 76.9999C73.5659 76.9999 73.5656 76.9999 73.5653 76.9999C73.565 76.9999 73.5647 76.9999 73.5644 76.9999C73.5642 76.9999 73.5639 76.9999 73.5636 76.9999C73.5633 76.9999 73.563 76.9999 73.5627 76.9999C73.5624 76.9999 73.5621 76.9999 73.5618 76.9999C73.5616 76.9999 73.5613 76.9999 73.561 76.9999C73.5607 76.9999 73.5604 76.9999 73.5601 76.9999C73.5598 76.9999 73.5596 76.9999 73.5593 76.9999C73.559 76.9999 73.5587 76.9999 73.5584 76.9999C73.5581 76.9999 73.5578 76.9999 73.5576 76.9999C73.5573 76.9999 73.557 76.9999 73.5567 76.9999C73.5564 76.9999 73.5561 76.9999 73.5558 76.9999C73.5556 76.9999 73.5553 76.9999 73.555 76.9999C73.5547 76.9999 73.5544 76.9999 73.5541 76.9999C73.5539 76.9999 73.5536 76.9999 73.5533 76.9999C73.553 76.9999 73.5527 76.9999 73.5524 76.9999C73.5522 76.9999 73.5519 76.9999 73.5516 76.9999C73.5513 76.9999 73.551 76.9999 73.5507 76.9999C73.5505 76.9999 73.5502 76.9999 73.5499 76.9999C73.5496 76.9999 73.5493 76.9999 73.5491 76.9999C73.5488 76.9999 73.5485 76.9999 73.5482 76.9999C73.5479 76.9999 73.5477 76.9999 73.5474 76.9999C73.5471 76.9999 73.5468 76.9999 73.5465 76.9999C73.5463 76.9999 73.546 76.9999 73.5457 76.9999C73.5454 76.9999 73.5452 76.9999 73.5449 76.9999C73.5446 76.9999 73.5443 76.9999 73.544 76.9999C73.5438 76.9999 73.5435 76.9999 73.5432 76.9999C73.5429 76.9999 73.5427 76.9999 73.5424 76.9999C73.5421 76.9999 73.5418 76.9999 73.5416 76.9999C73.5413 76.9999 73.541 76.9999 73.5407 76.9999C73.5405 76.9999 73.5402 76.9999 73.5399 76.9999C73.5396 76.9999 73.5394 76.9999 73.5391 76.9999C73.5388 76.9999 73.5385 76.9999 73.5383 76.9999C73.538 76.9999 73.5377 76.9999 73.5374 76.9999C73.5372 76.9999 73.5369 76.9999 73.5366 76.9999C73.5364 76.9999 73.5361 76.9999 73.5358 76.9999C73.5355 76.9999 73.5353 76.9999 73.535 76.9999C73.5347 76.9999 73.5345 76.9999 73.5342 76.9999C73.5339 76.9999 73.5336 76.9999 73.5334 76.9999C73.5331 76.9999 73.5328 76.9999 73.5326 76.9999C73.5323 76.9999 73.532 76.9999 73.5318 76.9999C73.5315 76.9999 73.5312 76.9999 73.531 76.9999C73.5307 76.9999 73.5304 76.9999 73.5302 76.9999C73.5299 76.9999 73.5296 76.9999 73.5294 76.9999C73.5291 76.9999 73.5288 76.9999 73.5286 76.9999C73.5283 76.9999 73.528 76.9999 73.5278 76.9999C73.5275 76.9999 73.5272 76.9999 73.527 76.9999C73.5267 76.9999 73.5264 76.9999 73.5262 76.9999C73.5259 76.9999 73.5256 76.9999 73.5254 76.9999C73.5251 76.9999 73.5248 76.9999 73.5246 76.9999C73.5243 76.9999 73.5241 76.9999 73.5238 76.9999C73.5235 76.9999 73.5233 76.9999 73.523 76.9999C73.5227 76.9999 73.5225 76.9999 73.5222 76.9999C73.522 76.9999 73.5217 76.9999 73.5214 76.9999C73.5212 76.9999 73.5209 76.9999 73.5207 76.9999C73.5204 76.9999 73.5201 76.9999 73.5199 76.9999C73.5196 76.9999 73.5194 76.9999 73.5191 76.9999C73.5188 76.9999 73.5186 76.9999 73.5183 76.9999C73.5181 76.9999 73.5178 76.9999 73.5175 76.9999C73.5173 76.9999 73.517 76.9999 73.5168 76.9999C73.5165 76.9999 73.5163 76.9999 73.516 76.9999C73.5157 76.9999 73.5155 76.9999 73.5152 76.9999C73.515 76.9999 73.5147 76.9999 73.5145 76.9999C73.5142 76.9999 73.514 76.9999 73.5137 76.9999C73.5135 76.9999 73.5132 76.9999 73.5129 76.9999C73.5127 76.9999 73.5124 76.9999 73.5122 76.9999C73.5119 76.9999 73.5117 76.9999 73.5114 76.9999C73.5112 76.9999 73.5109 76.9999 73.5107 76.9999C73.5104 76.9999 73.5102 76.9999 73.5099 76.9999C73.5097 76.9999 73.5094 76.9999 73.5092 76.9999C73.5089 76.9999 73.5087 76.9999 73.5084 76.9999C73.5082 76.9999 73.5079 76.9999 73.5077 76.9999C73.5074 76.9999 73.5072 76.9999 73.5069 76.9999C73.5067 76.9999 73.5064 76.9999 73.5062 76.9999C73.5059 76.9999 73.5057 76.9999 73.5054 76.9999C73.5052 76.9999 73.5049 76.9999 73.5047 76.9999C73.5044 76.9999 73.5042 76.9999 73.5039 76.9999C73.5037 76.9999 73.5035 76.9999 73.5032 76.9999C73.503 76.9999 73.5027 76.9999 73.5025 76.9999C73.5022 76.9999 73.502 76.9999 73.5017 76.9999C73.5015 76.9999 73.5012 76.9999 73.501 76.9999C73.5008 76.9999 73.5005 76.9999 73.5003 76.9999C73.5 76.9999 73.4998 76.9999 73.4996 76.9999C73.4993 76.9999 73.4991 76.9999 73.4988 76.9999C73.4986 76.9999 73.4983 76.9999 73.4981 76.9999C73.4979 76.9999 73.4976 76.9999 73.4974 76.9999C73.4971 76.9999 73.4969 76.9999 73.4967 76.9999C73.4964 76.9999 73.4962 76.9999 73.4959 76.9999C73.4957 76.9999 73.4955 76.9999 73.4952 76.9999C73.495 76.9999 73.4948 76.9999 73.4945 76.9999C73.4943 76.9999 73.494 76.9999 73.4938 76.9999C73.4936 76.9999 73.4933 76.9999 73.4931 76.9999C73.4929 76.9999 73.4926 76.9999 73.4924 76.9999C73.4922 76.9999 73.4919 76.9999 73.4917 76.9999C73.4915 76.9999 73.4912 76.9999 73.491 76.9999C73.4908 76.9999 73.4905 76.9999 73.4903 76.9999C73.4901 76.9999 73.4898 76.9999 73.4896 76.9999C73.4894 76.9999 73.4891 76.9999 73.4889 76.9999C73.4887 76.9999 73.4884 76.9999 73.4882 76.9999C73.488 76.9999 73.4877 76.9999 73.4875 76.9999C73.4873 76.9999 73.4871 76.9999 73.4868 76.9999C73.4866 76.9999 73.4864 76.9999 73.4861 76.9999C73.4859 76.9999 73.4857 76.9999 73.4855 76.9999C73.4852 76.9999 73.485 76.9999 73.4848 76.9999C73.4846 76.9999 73.4843 76.9999 73.4841 76.9999C73.4839 76.9999 73.4836 76.9999 73.4834 76.9999C73.4832 76.9999 73.483 76.9999 73.4827 76.9999C73.4825 76.9999 73.4823 76.9999 73.4821 76.9999C73.4819 76.9999 73.4816 76.9999 73.4814 76.9999C73.4812 76.9999 73.481 76.9999 73.4807 76.9999C73.4805 76.9999 73.4803 76.9999 73.4801 76.9999C73.4798 76.9999 73.4796 76.9999 73.4794 76.9999C73.4792 76.9999 73.479 76.9999 73.4787 76.9999C73.4785 76.9999 73.4783 76.9999 73.4781 76.9999C73.4779 76.9999 73.4776 76.9999 73.4774 76.9999C73.4772 76.9999 73.477 76.9999 73.4768 76.9999C73.4766 76.9999 73.4763 76.9999 73.4761 76.9999C73.4759 76.9999 73.4757 76.9999 73.4755 76.9999C73.4753 76.9999 73.475 76.9999 73.4748 76.9999C73.4746 76.9999 73.4744 76.9999 73.4742 76.9999C73.474 76.9999 73.4738 76.9999 73.4735 76.9999C73.4733 76.9999 73.4731 76.9999 73.4729 76.9999C73.4727 76.9999 73.4725 76.9999 73.4723 76.9999C73.472 76.9999 73.4718 76.9999 73.4716 76.9999C73.4714 76.9999 73.4712 76.9999 73.471 76.9999C73.4708 76.9999 73.4706 76.9999 73.4704 76.9999C73.4701 76.9999 73.4699 76.9999 73.4697 76.9999C73.4695 76.9999 73.4693 76.9999 73.4691 76.9999C73.4689 76.9999 73.4687 76.9999 73.4685 76.9999C73.4683 76.9999 73.4681 76.9999 73.4679 76.9999C73.4677 76.9999 73.4674 76.9999 73.4672 76.9999C73.467 76.9999 73.4668 76.9999 73.4666 76.9999C73.4664 76.9999 73.4662 76.9999 73.466 76.9999C73.4658 76.9999 73.4656 76.9999 73.4654 76.9999C73.4652 76.9999 73.465 76.9999 73.4648 76.9999C73.4646 76.9999 73.4644 76.9999 73.4642 76.9999C73.464 76.9999 73.4638 76.9999 73.4636 76.9999C73.4634 76.9999 73.4632 76.9999 73.463 76.9999C73.4628 76.9999 73.4626 76.9999 73.4624 76.9999C73.4622 76.9999 73.462 76.9999 73.4618 76.9999C73.4616 76.9999 73.4614 76.9999 73.4612 76.9999C73.461 76.9999 73.4608 76.9999 73.4606 76.9999C73.4604 76.9999 73.4602 76.9999 73.46 76.9999C73.4598 76.9999 73.4596 76.9999 73.4594 76.9999C73.4592 76.9999 73.459 76.9999 73.4588 76.9999C73.4586 76.9999 73.4585 76.9999 73.4583 76.9999C73.4581 76.9999 73.4579 76.9999 73.4577 76.9999C73.4575 76.9999 73.4573 76.9999 73.4571 76.9999C73.4569 76.9999 73.4567 76.9999 73.4565 76.9999C73.4563 76.9999 73.4561 76.9999 73.456 76.9999C73.4558 76.9999 73.4556 76.9999 73.4554 76.9999C73.4552 76.9999 73.455 76.9999 73.4548 76.9999C73.4546 76.9999 73.4544 76.9999 73.4543 76.9999C73.4541 76.9999 73.4539 76.9999 73.4537 76.9999C73.4535 76.9999 73.4533 76.9999 73.4531 76.9999C73.453 76.9999 73.4528 76.9999 73.4526 76.9999C73.4524 76.9999 73.4522 76.9999 73.452 76.9999C73.4519 76.9999 73.4517 76.9999 73.4515 76.9999C73.4513 76.9999 73.4511 76.9999 73.4509 76.9999C73.4508 76.9999 73.4506 76.9999 73.4504 76.9999C73.4502 76.9999 73.45 76.9999 73.4499 76.9999C73.4497 76.9999 73.4495 76.9999 73.4493 76.9999C73.4491 76.9999 73.449 76.9999 73.4488 76.9999C73.4486 76.9999 73.4484 76.9999 73.4482 76.9999C73.4481 76.9999 73.4479 76.9999 73.4477 76.9999C73.4475 76.9999 73.4474 76.9999 73.4472 76.9999C73.447 76.9999 73.4468 76.9999 73.4467 76.9999C73.4465 76.9999 73.4463 76.9999 73.4461 76.9999C73.446 76.9999 73.4458 76.9999 73.4456 76.9999C73.4454 76.9999 73.4453 76.9999 73.4451 76.9999C73.4449 76.9999 73.4447 76.9999 73.4446 76.9999C73.4444 76.9999 73.4442 76.9999 73.4441 76.9999C73.4439 76.9999 73.4437 76.9999 73.4436 76.9999C73.4434 76.9999 73.4432 76.9999 73.443 76.9999C73.4429 76.9999 73.4427 76.9999 73.4425 76.9999C73.4424 76.9999 73.4422 76.9999 73.442 76.9999C73.4419 76.9999 73.4417 76.9999 73.4415 76.9999C73.4414 76.9999 73.4412 76.9999 73.441 76.9999C73.4409 76.9999 73.4407 76.9999 73.4406 76.9999C73.4404 76.9999 73.4402 76.9999 73.4401 76.9999C73.4399 76.9999 73.4397 76.9999 73.4396 76.9999C73.4394 76.9999 73.4393 76.9999 73.4391 76.9999C73.4389 76.9999 73.4388 76.9999 73.4386 76.9999C73.4384 76.9999 73.4383 76.9999 73.4381 76.9999C73.438 76.9999 73.4378 76.9999 73.4377 76.9999C73.4375 76.9999 73.4373 76.9999 73.4372 76.9999C73.437 76.9999 73.4369 76.9999 73.4367 76.9999C73.4366 76.9999 73.4364 76.9999 73.4362 76.9999C73.4361 76.9999 73.4359 76.9999 73.4358 76.9999C73.4356 76.9999 73.4355 76.9999 73.4353 76.9999C73.4352 76.9999 73.435 76.9999 73.4349 76.9999C73.4347 76.9999 73.4346 76.9999 73.4344 76.9999C73.4343 76.9999 73.4341 76.9999 73.434 76.9999C73.4338 76.9999 73.4336 76.9999 73.4335 76.9999C73.4333 76.9999 73.4332 76.9999 73.4331 76.9999C73.4329 76.9999 73.4328 76.9999 73.4326 76.9999C73.4325 76.9999 73.4323 76.9999 73.4322 76.9999C73.432 76.9999 73.4319 76.9999 73.4317 76.9999C73.4316 76.9999 73.4314 76.9999 73.4313 76.9999C73.4311 76.9999 73.431 76.9999 73.4309 76.9999C73.4307 76.9999 73.4306 76.9999 73.4304 76.9999C73.4303 76.9999 73.4301 76.9999 73.43 76.9999C73.4299 76.9999 73.4297 76.9999 73.4296 76.9999C73.4294 76.9999 73.4293 76.9999 73.4292 76.9999C73.429 76.9999 73.4289 76.9999 73.4287 76.9999C73.4286 76.9999 73.4285 76.9999 73.4283 76.9999C73.4282 76.9999 73.4281 76.9999 73.4279 76.9999C73.4278 76.9999 73.4276 76.9999 73.4275 76.9999C73.4274 76.9999 73.4272 76.9999 73.4271 76.9999C73.427 76.9999 73.4268 76.9999 73.4267 76.9999C73.4266 76.9999 73.4264 76.9999 73.4263 76.9999C73.4262 76.9999 73.426 76.9999 73.4259 76.9999C73.4258 76.9999 73.4256 76.9999 73.4255 76.9999C73.4254 76.9999 73.4253 76.9999 73.4251 76.9999C73.425 76.9999 73.4249 76.9999 73.4247 76.9999C73.4246 76.9999 73.4245 76.9999 73.4244 76.9999C73.4242 76.9999 73.4241 76.9999 73.424 76.9999C73.4238 76.9999 73.4237 76.9999 73.4236 76.9999C73.4235 76.9999 73.4233 76.9999 73.4232 76.9999C73.4231 76.9999 73.423 76.9999 73.4228 76.9999C73.4227 76.9999 73.4226 76.9999 73.4225 76.9999C73.4224 76.9999 73.4222 76.9999 73.4221 76.9999C73.422 76.9999 73.4219 76.9999 73.4217 76.9999C73.4216 76.9999 73.4215 76.9999 73.4214 76.9999C73.4213 76.9999 73.4212 76.9999 73.421 76.9999C73.4209 76.9999 73.4208 76.9999 73.4207 76.9999C73.4206 76.9999 73.4204 76.9999 73.4203 76.9999C73.4202 76.9999 73.4201 76.9999 73.42 76.9999C73.4199 76.9999 73.4198 76.9999 73.4196 76.9999C73.4195 76.9999 73.4194 76.9999 73.4193 76.9999C73.4192 76.9999 73.4191 76.9999 73.419 76.9999C73.4189 76.9999 73.4187 76.9999 73.4186 76.9999C73.4185 76.9999 73.4184 76.9999 73.4183 76.9999C73.4182 76.9999 73.4181 76.9999 73.418 76.9999C73.4179 76.9999 73.4178 76.9999 73.4177 76.9999C73.4175 76.9999 73.4174 76.9999 73.4173 76.9999C73.4172 76.9999 73.4171 76.9999 73.417 76.9999C73.4169 76.9999 73.4168 76.9999 73.4167 76.9999C73.4166 76.9999 73.4165 76.9999 73.4164 76.9999C73.4163 76.9999 73.4162 76.9999 73.4161 76.9999C73.416 76.9999 73.4159 76.9999 73.4158 76.9999C73.4157 76.9999 73.4156 76.9999 73.4155 76.9999C73.4154 76.9999 73.4153 76.9999 73.4152 76.9999C73.4151 76.9999 73.415 76.9999 73.4149 76.9999C73.4148 76.9999 73.4147 76.9999 73.4146 76.9999C73.4145 76.9999 73.4144 76.9999 73.4143 76.9999C73.4142 76.9999 73.4141 76.9999 73.414 76.9999C73.4139 76.9999 73.4138 76.9999 73.4137 76.9999C73.4136 76.9999 73.4135 76.9999 73.4135 76.9999C73.4134 76.9999 73.4133 76.9999 73.4132 76.9999C73.4131 76.9999 73.413 76.9999 73.4129 76.9999C73.4128 76.9999 73.4127 76.9999 73.4126 76.9999C73.4126 76.9999 73.4125 76.9999 73.4124 76.9999C73.4123 76.9999 73.4122 76.9999 73.4121 76.9999C73.412 76.9999 73.4119 76.9999 73.4119 76.9999C73.4118 76.9999 73.4117 76.9999 73.4116 76.9999C73.4115 76.9999 73.4114 76.9999 73.4114 76.9999C73.4113 76.9999 73.4112 76.9999 73.4111 76.9999C73.411 76.9999 73.4109 76.9999 73.4109 76.9999C73.4108 76.9999 73.4107 76.9999 73.4106 76.9999C73.4105 76.9999 73.4105 76.9999 73.4104 76.9999C73.4103 76.9999 73.4102 76.9999 73.4102 76.9999C73.4101 76.9999 73.41 76.9999 73.4099 76.9999C73.4098 76.9999 73.4098 76.9999 73.4097 76.9999C73.4096 76.9999 73.4095 76.9999 73.4095 76.9999C73.4094 76.9999 73.4093 76.9999 73.4093 76.9999C73.4092 76.9999 73.4091 76.9999 73.409 76.9999C73.409 76.9999 73.4089 76.9999 73.4088 76.9999C73.4087 76.9999 73.4087 76.9999 73.4086 76.9999C73.4085 76.9999 73.4085 76.9999 73.4084 76.9999C73.4083 76.9999 73.4083 76.9999 73.4082 76.9999C73.4081 76.9999 73.4081 76.9999 73.408 76.9999C73.4079 76.9999 73.4079 76.9999 73.4078 76.9999C73.4077 76.9999 73.4077 76.9999 73.4076 76.9999C73.4076 76.9999 73.4075 76.9999 73.4074 76.9999C73.4074 76.9999 73.4073 76.9999 73.4072 76.9999C73.4072 76.9999 73.4071 76.9999 73.4071 76.9999C73.407 76.9999 73.4069 76.9999 73.4069 76.9999C73.4068 76.9999 73.4068 76.9999 73.4067 76.9999C73.4067 76.9999 73.4066 76.9999 73.4065 76.9999C73.4065 76.9999 73.4064 76.9999 73.4064 76.9999C73.4063 76.9999 73.4063 76.9999 73.4062 76.9999C73.4062 76.9999 73.4061 76.9999 73.406 76.9999C73.406 76.9999 73.4059 76.9999 73.4059 76.9999C73.4058 76.9999 73.4058 76.9999 73.4057 76.9999C73.4057 76.9999 73.4056 76.9999 73.4056 76.9999C73.4055 76.9999 73.4055 76.9999 73.4054 76.9999C73.4054 76.9999 73.4053 76.9999 73.4053 76.9999C73.4053 76.9999 73.4052 76.9999 73.4052 76.9999C73.4051 76.9999 73.4051 76.9999 73.405 76.9999C73.405 76.9999 73.4049 76.9999 73.4049 76.9999C73.4049 76.9999 73.4048 76.9999 73.4048 76.9999C73.4047 76.9999 73.4047 76.9999 73.4046 76.9999C73.4046 76.9999 73.4046 76.9999 73.4045 76.9999C73.4045 76.9999 73.4044 76.9999 73.4044 76.9999C73.4044 76.9999 73.4043 76.9999 73.4043 76.9999C73.4043 76.9999 73.4042 76.9999 73.4042 76.9999C73.4042 76.9999 73.4041 76.9999 73.4041 76.9999C73.404 76.9999 73.404 76.9999 73.404 76.9999C73.4039 76.9999 73.4039 76.9999 73.4039 76.9999C73.4039 76.9999 73.4038 76.9999 73.4038 76.9999C73.4038 76.9999 73.4037 76.9999 73.4037 76.9999C73.4037 76.9999 73.4036 76.9999 73.4036 76.9999C73.4036 76.9999 73.4036 76.9999 73.4035 76.9999C73.4035 76.9999 73.4035 76.9999 73.4035 76.9999C73.4034 76.9999 73.4034 76.9999 73.4034 76.9999C73.4034 76.9999 73.4033 76.9999 73.4033 76.9999C73.4033 76.9999 73.4033 76.9999 73.4032 76.9999C73.4032 76.9999 73.4032 76.9999 73.4032 76.9999C73.4032 76.9999 73.4031 76.9999 73.4031 76.9999C73.4031 76.9999 73.4031 76.9999 73.4031 76.9999C73.403 76.9999 73.403 76.9999 73.403 76.9999C73.403 76.9999 73.403 76.9999 73.403 76.9999C73.4029 76.9999 73.4029 76.9999 73.4029 76.9999C73.4029 76.9999 73.4029 76.9999 73.4029 76.9999C73.4029 76.9999 73.4028 76.9999 73.4028 76.9999C73.4028 76.9999 73.4028 76.9999 73.4028 76.9999C73.4028 76.9999 73.4028 76.9999 73.4028 76.9999C73.4028 76.9999 73.4028 76.9999 73.4027 76.9999C73.4027 76.9999 73.4027 76.9999 73.4027 76.9999C73.4027 76.9999 73.4027 76.9999 73.4027 76.9999C73.4027 76.9999 73.4027 76.9999 73.4027 76.9999C73.4027 76.9999 73.4027 76.9999 73.4027 76.9999C73.4027 76.9999 73.4027 76.9999 73.4027 76.9999C73.4027 76.9999 73.4027 76.9999 73.4027 78.9999ZM74.6468 80.7855C74.9009 80.6573 75.3415 80.4122 75.6992 79.9609C76.1124 79.4395 76.2605 78.849 76.2605 78.3073H72.2605C72.2605 78.2287 72.2703 78.0954 72.3218 77.9329C72.3755 77.7636 72.4601 77.6079 72.5644 77.4763C72.7506 77.2414 72.9338 77.1695 72.8448 77.2144L74.6468 80.7855ZM76.2605 78.3073V73.113H72.2605V78.3073H76.2605ZM74.2605 75.113H76.6623V71.113H74.2605V75.113ZM76.6623 75.113C78.5547 75.113 80.2858 74.1213 81.487 72.8814C82.6976 71.6318 83.6374 69.8581 83.6374 67.9186H79.6374C79.6374 68.5763 79.2905 69.3999 78.6141 70.0981C77.9282 70.8061 77.1717 71.113 76.6623 71.113V75.113ZM83.6374 67.9186V50.431H79.6374V67.9186H83.6374ZM83.6374 50.431C83.6374 48.3794 82.5883 46.8164 81.2095 45.836C79.8773 44.8887 78.2126 44.4487 76.6623 44.4487V48.4487C77.5138 48.4487 78.3366 48.7013 78.8915 49.0959C79.3998 49.4573 79.6374 49.8855 79.6374 50.431H83.6374ZM76.6623 44.4487H50.7572V48.4487H76.6623V44.4487ZM50.8831 44.4527C49.059 44.3376 47.3597 44.8522 46.0936 45.9619C44.8199 47.0782 44.1252 48.6777 44.1252 50.431H48.1252C48.1252 49.7603 48.3741 49.282 48.7302 48.97C49.0938 48.6512 49.7105 48.3866 50.6313 48.4447L50.8831 44.4527ZM77.9218 50.431V67.9186H81.9218V50.431H77.9218ZM77.9218 67.9186C77.9218 68.1647 77.7708 68.6178 77.3829 69.0498C76.9736 69.5057 76.6573 69.5547 76.6623 69.5547V73.5547C78.2113 73.5547 79.5248 72.6514 80.3592 71.7222C81.2151 70.769 81.9218 69.4041 81.9218 67.9186H77.9218ZM76.6623 69.5547H73.5743V73.5547H76.6623V69.5547ZM73.5743 69.5547C72.8569 69.5547 72.1062 69.8053 71.5317 70.3851C70.9588 70.9633 70.7165 71.7117 70.7165 72.4204H74.7165C74.7165 72.6097 74.6458 72.9253 74.3731 73.2005C74.0988 73.4773 73.777 73.5547 73.5743 73.5547V69.5547ZM70.7165 72.4204V76.5759H74.7165V72.4204H70.7165ZM74.0404 75.0768L68.5506 70.2287L65.9028 73.227L71.3926 78.075L74.0404 75.0768ZM68.6474 70.3202C67.8539 69.5193 66.9159 69.5547 66.712 69.5547V73.5547C66.8353 73.5547 66.6736 73.5644 66.4801 73.5156C66.3653 73.4866 66.2383 73.4395 66.1106 73.367C65.9838 73.295 65.8826 73.2129 65.806 73.1355L68.6474 70.3202ZM66.712 69.5547H50.9288V73.5547H66.712V69.5547ZM50.9288 69.5547C50.899 69.5547 50.6384 69.5132 50.32 69.1442C50.0199 68.7965 49.8408 68.341 49.8408 67.9186H45.8408C45.8408 69.4009 46.4337 70.7634 47.2917 71.7576C48.1312 72.7304 49.4146 73.5547 50.9288 73.5547V69.5547ZM49.8408 67.9186V50.431H45.8408V67.9186H49.8408ZM49.8408 50.431C49.8408 50.364 49.8482 50.3242 49.8527 50.3056C49.8551 50.296 49.8572 50.29 49.8583 50.287C49.8595 50.2841 49.8602 50.2827 49.8604 50.2824C49.8606 50.282 49.8609 50.2814 49.8617 50.2804C49.8625 50.2793 49.8644 50.2768 49.8681 50.2729C49.8752 50.2653 49.8915 50.2498 49.9223 50.2291C50.0706 50.1293 50.4128 50.007 50.9288 50.007V46.007C49.9008 46.007 48.6991 46.231 47.6893 46.9104C46.5877 47.6516 45.8408 48.8647 45.8408 50.431H49.8408ZM50.9288 50.007H76.8338V46.007H50.9288V50.007ZM77.0841 49.9913C77.135 49.9848 77.2332 49.9857 77.3645 50.0218C77.4943 50.0576 77.6202 50.118 77.7229 50.1921C77.8257 50.2662 77.8795 50.3347 77.9029 50.375C77.9217 50.4075 77.9218 50.4208 77.9218 50.431H81.9218C81.9218 48.8583 81.0482 47.6583 80.0621 46.9473C79.0965 46.2512 77.8246 45.8661 76.5835 46.0227L77.0841 49.9913Z" fill="#0EF5FF" mask="url(#path-17-inside-9)"/>
<path d="M38.3777 63.2532C38.3775 63.2533 38.3771 63.2514 38.377 63.2474C38.3778 63.2511 38.3778 63.2531 38.3777 63.2532Z" stroke="#0EF5FF" stroke-width="2"/>
</g>
<defs>
<filter id="filter0_d" x="0" y="0" width="111.637" height="109" filterUnits="userSpaceOnUse" color-interpolation-filters="sRGB">
<feFlood flood-opacity="0" result="BackgroundImageFix"/>
<feColorMatrix in="SourceAlpha" type="matrix" values="0 0 0 0 0 0 0 0 0 0 0 0 0 0 0 0 0 0 127 0"/>
<feOffset/>
<feGaussianBlur stdDeviation="15"/>
<feColorMatrix type="matrix" values="0 0 0 0 0.054902 0 0 0 0 0.960784 0 0 0 0 1 0 0 0 0.8 0"/>
<feBlend mode="normal" in2="BackgroundImageFix" result="effect1_dropShadow"/>
<feBlend mode="normal" in="SourceGraphic" in2="effect1_dropShadow" result="shape"/>
</filter>
</defs>
</svg>
